solid 
   facet normal -0.000000e+00 -1.000000e+00 -0.000000e+00
      outer loop
         vertex 1.250000e+00 1.250000e+00 -2.500000e+00
         vertex 1.250000e+00 1.250000e+00 2.000000e+00
         vertex -1.250000e+00 1.250000e+00 2.000000e+00
      endloop
   endfacet
   facet normal 0.000000e+00 -1.000000e+00 0.000000e+00
      outer loop
         vertex -1.250000e+00 1.250000e+00 -2.500000e+00
         vertex 1.250000e+00 1.250000e+00 -2.500000e+00
         vertex -1.250000e+00 1.250000e+00 2.000000e+00
      endloop
   endfacet
   facet normal 1.000000e+00 0.000000e+00 0.000000e+00
      outer loop
         vertex -1.250000e+00 1.250000e+00 -2.500000e+00
         vertex -1.250000e+00 1.250000e+00 2.000000e+00
         vertex -1.250000e+00 -1.250000e+00 2.000000e+00
      endloop
   endfacet
   facet normal 1.000000e+00 0.000000e+00 0.000000e+00
      outer loop
         vertex -1.250000e+00 -1.250000e+00 -2.500000e+00
         vertex -1.250000e+00 1.250000e+00 -2.500000e+00
         vertex -1.250000e+00 -1.250000e+00 2.000000e+00
      endloop
   endfacet
   facet normal -0.000000e+00 1.000000e+00 0.000000e+00
      outer loop
         vertex -1.250000e+00 -1.250000e+00 -2.500000e+00
         vertex -1.250000e+00 -1.250000e+00 2.000000e+00
         vertex 1.250000e+00 -1.250000e+00 2.000000e+00
      endloop
   endfacet
   facet normal 0.000000e+00 1.000000e+00 0.000000e+00
      outer loop
         vertex 1.250000e+00 -1.250000e+00 -2.500000e+00
         vertex -1.250000e+00 -1.250000e+00 -2.500000e+00
         vertex 1.250000e+00 -1.250000e+00 2.000000e+00
      endloop
   endfacet
   facet normal -1.000000e+00 0.000000e+00 0.000000e+00
      outer loop
         vertex 1.250000e+00 -1.250000e+00 -2.500000e+00
         vertex 1.250000e+00 -1.250000e+00 2.000000e+00
         vertex 1.250000e+00 1.250000e+00 2.000000e+00
      endloop
   endfacet
   facet normal -1.000000e+00 0.000000e+00 0.000000e+00
      outer loop
         vertex 1.250000e+00 1.250000e+00 -2.500000e+00
         vertex 1.250000e+00 -1.250000e+00 -2.500000e+00
         vertex 1.250000e+00 1.250000e+00 2.000000e+00
      endloop
   endfacet
   facet normal 0.000000e+00 1.000000e+00 -0.000000e+00
      outer loop
         vertex 2.000000e+00 2.000000e+00 3.500000e+00
         vertex 2.000000e+00 2.000000e+00 0.000000e+00
         vertex -2.000000e+00 2.000000e+00 0.000000e+00
      endloop
   endfacet
   facet normal 0.000000e+00 1.000000e+00 0.000000e+00
      outer loop
         vertex 2.000000e+00 2.000000e+00 3.500000e+00
         vertex -2.000000e+00 2.000000e+00 0.000000e+00
         vertex -2.000000e+00 2.000000e+00 3.500000e+00
      endloop
   endfacet
   facet normal -1.000000e+00 0.000000e+00 0.000000e+00
      outer loop
         vertex -2.000000e+00 2.000000e+00 3.500000e+00
         vertex -2.000000e+00 2.000000e+00 0.000000e+00
         vertex -2.000000e+00 -2.000000e+00 0.000000e+00
      endloop
   endfacet
   facet normal -1.000000e+00 0.000000e+00 0.000000e+00
      outer loop
         vertex -2.000000e+00 2.000000e+00 3.500000e+00
         vertex -2.000000e+00 -2.000000e+00 0.000000e+00
         vertex -2.000000e+00 -2.000000e+00 3.500000e+00
      endloop
   endfacet
   facet normal 0.000000e+00 -1.000000e+00 0.000000e+00
      outer loop
         vertex -2.000000e+00 -2.000000e+00 3.500000e+00
         vertex -2.000000e+00 -2.000000e+00 0.000000e+00
         vertex 2.000000e+00 -2.000000e+00 0.000000e+00
      endloop
   endfacet
   facet normal 0.000000e+00 -1.000000e+00 0.000000e+00
      outer loop
         vertex -2.000000e+00 -2.000000e+00 3.500000e+00
         vertex 2.000000e+00 -2.000000e+00 0.000000e+00
         vertex 2.000000e+00 -2.000000e+00 3.500000e+00
      endloop
   endfacet
   facet normal 1.000000e+00 0.000000e+00 0.000000e+00
      outer loop
         vertex 2.000000e+00 -2.000000e+00 3.500000e+00
         vertex 2.000000e+00 -2.000000e+00 0.000000e+00
         vertex 2.000000e+00 2.000000e+00 0.000000e+00
      endloop
   endfacet
   facet normal 1.000000e+00 0.000000e+00 -0.000000e+00
      outer loop
         vertex 2.000000e+00 -2.000000e+00 3.500000e+00
         vertex 2.000000e+00 2.000000e+00 0.000000e+00
         vertex 2.000000e+00 2.000000e+00 3.500000e+00
      endloop
   endfacet
   facet normal 0.000000e+00 0.000000e+00 1.000000e+00
      outer loop
         vertex 2.500000e+00 -5.500000e+00 0.000000e+00
         vertex 2.000000e+00 -2.000000e+00 0.000000e+00
         vertex -2.500000e+00 -5.500000e+00 0.000000e+00
      endloop
   endfacet
   facet normal -0.000000e+00 0.000000e+00 1.000000e+00
      outer loop
         vertex 2.000000e+00 -2.000000e+00 0.000000e+00
         vertex -2.000000e+00 -2.000000e+00 0.000000e+00
         vertex -2.500000e+00 -5.500000e+00 0.000000e+00
      endloop
   endfacet
   facet normal 0.000000e+00 0.000000e+00 1.000000e+00
      outer loop
         vertex -2.500000e+00 -5.500000e+00 0.000000e+00
         vertex -2.000000e+00 -2.000000e+00 0.000000e+00
         vertex -2.500000e+00 5.500000e+00 0.000000e+00
      endloop
   endfacet
   facet normal 0.000000e+00 0.000000e+00 1.000000e+00
      outer loop
         vertex -2.000000e+00 -2.000000e+00 0.000000e+00
         vertex -2.000000e+00 2.000000e+00 0.000000e+00
         vertex -2.500000e+00 5.500000e+00 0.000000e+00
      endloop
   endfacet
   facet normal 0.000000e+00 -0.000000e+00 1.000000e+00
      outer loop
         vertex -2.500000e+00 5.500000e+00 0.000000e+00
         vertex -2.000000e+00 2.000000e+00 0.000000e+00
         vertex 2.500000e+00 5.500000e+00 0.000000e+00
      endloop
   endfacet
   facet normal 0.000000e+00 -0.000000e+00 1.000000e+00
      outer loop
         vertex -2.000000e+00 2.000000e+00 0.000000e+00
         vertex 2.000000e+00 2.000000e+00 0.000000e+00
         vertex 2.500000e+00 5.500000e+00 0.000000e+00
      endloop
   endfacet
   facet normal -0.000000e+00 0.000000e+00 1.000000e+00
      outer loop
         vertex 2.500000e+00 5.500000e+00 0.000000e+00
         vertex 2.000000e+00 2.000000e+00 0.000000e+00
         vertex 2.500000e+00 -5.500000e+00 0.000000e+00
      endloop
   endfacet
   facet normal -0.000000e+00 0.000000e+00 1.000000e+00
      outer loop
         vertex 2.000000e+00 2.000000e+00 0.000000e+00
         vertex 2.000000e+00 -2.000000e+00 0.000000e+00
         vertex 2.500000e+00 -5.500000e+00 0.000000e+00
      endloop
   endfacet
   facet normal -0.000000e+00 -0.000000e+00 -1.000000e+00
      outer loop
         vertex -1.250000e+00 1.250000e+00 2.000000e+00
         vertex 1.250000e+00 1.250000e+00 2.000000e+00
         vertex 1.250000e+00 -1.250000e+00 2.000000e+00
      endloop
   endfacet
   facet normal 0.000000e+00 0.000000e+00 -1.000000e+00
      outer loop
         vertex -1.250000e+00 -1.250000e+00 2.000000e+00
         vertex -1.250000e+00 1.250000e+00 2.000000e+00
         vertex 1.250000e+00 -1.250000e+00 2.000000e+00
      endloop
   endfacet
   facet normal -0.000000e+00 0.000000e+00 -1.000000e+00
      outer loop
         vertex -2.500000e+00 5.500000e+00 -2.500000e+00
         vertex -1.250000e+00 1.250000e+00 -2.500000e+00
         vertex -2.500000e+00 -5.500000e+00 -2.500000e+00
      endloop
   endfacet
   facet normal -0.000000e+00 0.000000e+00 -1.000000e+00
      outer loop
         vertex -1.250000e+00 1.250000e+00 -2.500000e+00
         vertex -1.250000e+00 -1.250000e+00 -2.500000e+00
         vertex -2.500000e+00 -5.500000e+00 -2.500000e+00
      endloop
   endfacet
   facet normal 0.000000e+00 -0.000000e+00 -1.000000e+00
      outer loop
         vertex -2.500000e+00 -5.500000e+00 -2.500000e+00
         vertex -1.250000e+00 -1.250000e+00 -2.500000e+00
         vertex 2.500000e+00 -5.500000e+00 -2.500000e+00
      endloop
   endfacet
   facet normal -0.000000e+00 -0.000000e+00 -1.000000e+00
      outer loop
         vertex -1.250000e+00 -1.250000e+00 -2.500000e+00
         vertex 1.250000e+00 -1.250000e+00 -2.500000e+00
         vertex 2.500000e+00 -5.500000e+00 -2.500000e+00
      endloop
   endfacet
   facet normal 0.000000e+00 0.000000e+00 -1.000000e+00
      outer loop
         vertex 2.500000e+00 -5.500000e+00 -2.500000e+00
         vertex 1.250000e+00 -1.250000e+00 -2.500000e+00
         vertex 2.500000e+00 5.500000e+00 -2.500000e+00
      endloop
   endfacet
   facet normal 0.000000e+00 0.000000e+00 -1.000000e+00
      outer loop
         vertex 1.250000e+00 -1.250000e+00 -2.500000e+00
         vertex 1.250000e+00 1.250000e+00 -2.500000e+00
         vertex 2.500000e+00 5.500000e+00 -2.500000e+00
      endloop
   endfacet
   facet normal 0.000000e+00 0.000000e+00 -1.000000e+00
      outer loop
         vertex 2.500000e+00 5.500000e+00 -2.500000e+00
         vertex 1.250000e+00 1.250000e+00 -2.500000e+00
         vertex -2.500000e+00 5.500000e+00 -2.500000e+00
      endloop
   endfacet
   facet normal 0.000000e+00 0.000000e+00 -1.000000e+00
      outer loop
         vertex 1.250000e+00 1.250000e+00 -2.500000e+00
         vertex -1.250000e+00 1.250000e+00 -2.500000e+00
         vertex -2.500000e+00 5.500000e+00 -2.500000e+00
      endloop
   endfacet
   facet normal -0.000000e+00 0.000000e+00 1.000000e+00
      outer loop
         vertex 2.000000e+00 2.000000e+00 3.500000e+00
         vertex -2.000000e+00 2.000000e+00 3.500000e+00
         vertex -2.000000e+00 -2.000000e+00 3.500000e+00
      endloop
   endfacet
   facet normal 0.000000e+00 0.000000e+00 1.000000e+00
      outer loop
         vertex 2.000000e+00 2.000000e+00 3.500000e+00
         vertex -2.000000e+00 -2.000000e+00 3.500000e+00
         vertex 2.000000e+00 -2.000000e+00 3.500000e+00
      endloop
   endfacet
   facet normal -0.000000e+00 1.000000e+00 0.000000e+00
      outer loop
         vertex -2.500000e+00 5.500000e+00 -2.500000e+00
         vertex -2.500000e+00 5.500000e+00 0.000000e+00
         vertex 2.500000e+00 5.500000e+00 0.000000e+00
      endloop
   endfacet
   facet normal 0.000000e+00 1.000000e+00 0.000000e+00
      outer loop
         vertex -2.500000e+00 5.500000e+00 -2.500000e+00
         vertex 2.500000e+00 5.500000e+00 0.000000e+00
         vertex 2.500000e+00 5.500000e+00 -2.500000e+00
      endloop
   endfacet
   facet normal -1.000000e+00 0.000000e+00 0.000000e+00
      outer loop
         vertex -2.500000e+00 -5.500000e+00 -2.500000e+00
         vertex -2.500000e+00 -5.500000e+00 0.000000e+00
         vertex -2.500000e+00 5.500000e+00 0.000000e+00
      endloop
   endfacet
   facet normal -1.000000e+00 0.000000e+00 -0.000000e+00
      outer loop
         vertex -2.500000e+00 -5.500000e+00 -2.500000e+00
         vertex -2.500000e+00 5.500000e+00 0.000000e+00
         vertex -2.500000e+00 5.500000e+00 -2.500000e+00
      endloop
   endfacet
   facet normal -0.000000e+00 -1.000000e+00 -0.000000e+00
      outer loop
         vertex 2.500000e+00 -5.500000e+00 -2.500000e+00
         vertex 2.500000e+00 -5.500000e+00 0.000000e+00
         vertex -2.500000e+00 -5.500000e+00 0.000000e+00
      endloop
   endfacet
   facet normal 0.000000e+00 -1.000000e+00 0.000000e+00
      outer loop
         vertex 2.500000e+00 -5.500000e+00 -2.500000e+00
         vertex -2.500000e+00 -5.500000e+00 0.000000e+00
         vertex -2.500000e+00 -5.500000e+00 -2.500000e+00
      endloop
   endfacet
   facet normal 1.000000e+00 0.000000e+00 0.000000e+00
      outer loop
         vertex 2.500000e+00 5.500000e+00 -2.500000e+00
         vertex 2.500000e+00 5.500000e+00 0.000000e+00
         vertex 2.500000e+00 -5.500000e+00 0.000000e+00
      endloop
   endfacet
   facet normal 1.000000e+00 0.000000e+00 0.000000e+00
      outer loop
         vertex 2.500000e+00 5.500000e+00 -2.500000e+00
         vertex 2.500000e+00 -5.500000e+00 0.000000e+00
         vertex 2.500000e+00 -5.500000e+00 -2.500000e+00
      endloop
   endfacet
endsolid
