solid 
   facet normal 0.000000e+00 1.000000e+00 0.000000e+00
      outer loop
         vertex -9.864576e+00 2.960000e+01 3.600000e+00
         vertex 1.199451e+01 2.960000e+01 -2.503172e+00
         vertex -9.864576e+00 2.960000e+01 -1.064000e+02
      endloop
   endfacet
   facet normal 0.000000e+00 1.000000e+00 0.000000e+00
      outer loop
         vertex 1.199451e+01 2.960000e+01 -2.503172e+00
         vertex 1.237647e+01 2.960000e+01 -3.678743e+00
         vertex -9.864576e+00 2.960000e+01 -1.064000e+02
      endloop
   endfacet
   facet normal 0.000000e+00 1.000000e+00 0.000000e+00
      outer loop
         vertex -9.864576e+00 2.960000e+01 -1.064000e+02
         vertex 1.151739e+01 2.960000e+01 -1.031021e+02
         vertex 1.001354e+02 2.960000e+01 -1.064000e+02
      endloop
   endfacet
   facet normal 0.000000e+00 1.000000e+00 0.000000e+00
      outer loop
         vertex 1.151739e+01 2.960000e+01 -1.031021e+02
         vertex 1.275346e+01 2.960000e+01 -1.031021e+02
         vertex 1.001354e+02 2.960000e+01 -1.064000e+02
      endloop
   endfacet
   facet normal -0.000000e+00 1.000000e+00 0.000000e+00
      outer loop
         vertex 1.001354e+02 2.960000e+01 -1.064000e+02
         vertex 9.600000e+01 2.960000e+01 -3.550000e+01
         vertex 1.001354e+02 2.960000e+01 3.600000e+00
      endloop
   endfacet
   facet normal -0.000000e+00 1.000000e+00 0.000000e+00
      outer loop
         vertex 9.600000e+01 2.960000e+01 -3.550000e+01
         vertex 9.561803e+01 2.960000e+01 -3.432443e+01
         vertex 1.001354e+02 2.960000e+01 3.600000e+00
      endloop
   endfacet
   facet normal 0.000000e+00 1.000000e+00 -0.000000e+00
      outer loop
         vertex 1.001354e+02 2.960000e+01 3.600000e+00
         vertex 9.461803e+01 2.960000e+01 -5.697887e+00
         vertex -9.864576e+00 2.960000e+01 3.600000e+00
      endloop
   endfacet
   facet normal 0.000000e+00 1.000000e+00 -0.000000e+00
      outer loop
         vertex 9.461803e+01 2.960000e+01 -5.697887e+00
         vertex 9.338197e+01 2.960000e+01 -5.697887e+00
         vertex -9.864576e+00 2.960000e+01 3.600000e+00
      endloop
   endfacet
   facet normal 0.000000e+00 1.000000e+00 0.000000e+00
      outer loop
         vertex -9.864576e+00 2.960000e+01 3.600000e+00
         vertex 1.337647e+01 2.960000e+01 -6.010593e-01
         vertex 1.237647e+01 2.960000e+01 -1.327602e+00
      endloop
   endfacet
   facet normal 0.000000e+00 1.000000e+00 0.000000e+00
      outer loop
         vertex -9.864576e+00 2.960000e+01 3.600000e+00
         vertex 9.338197e+01 2.960000e+01 -5.697887e+00
         vertex 1.461254e+01 2.960000e+01 -6.010593e-01
      endloop
   endfacet
   facet normal 0.000000e+00 1.000000e+00 -0.000000e+00
      outer loop
         vertex 9.338197e+01 2.960000e+01 -5.697887e+00
         vertex 9.238197e+01 2.960000e+01 -6.424429e+00
         vertex 1.461254e+01 2.960000e+01 -6.010593e-01
      endloop
   endfacet
   facet normal 0.000000e+00 1.000000e+00 0.000000e+00
      outer loop
         vertex 1.461254e+01 2.960000e+01 -6.010593e-01
         vertex 9.238197e+01 2.960000e+01 -6.424429e+00
         vertex 1.561254e+01 2.960000e+01 -1.327602e+00
      endloop
   endfacet
   facet normal 0.000000e+00 1.000000e+00 -0.000000e+00
      outer loop
         vertex 9.238197e+01 2.960000e+01 -6.424429e+00
         vertex 9.200000e+01 2.960000e+01 -7.600000e+00
         vertex 1.561254e+01 2.960000e+01 -1.327602e+00
      endloop
   endfacet
   facet normal 0.000000e+00 1.000000e+00 0.000000e+00
      outer loop
         vertex 1.561254e+01 2.960000e+01 -1.327602e+00
         vertex 9.200000e+01 2.960000e+01 -7.600000e+00
         vertex 1.599451e+01 2.960000e+01 -2.503172e+00
      endloop
   endfacet
   facet normal 0.000000e+00 1.000000e+00 0.000000e+00
      outer loop
         vertex 9.200000e+01 2.960000e+01 -7.600000e+00
         vertex 9.238197e+01 2.960000e+01 -8.775570e+00
         vertex 1.599451e+01 2.960000e+01 -2.503172e+00
      endloop
   endfacet
   facet normal 0.000000e+00 1.000000e+00 0.000000e+00
      outer loop
         vertex 1.599451e+01 2.960000e+01 -2.503172e+00
         vertex 9.238197e+01 2.960000e+01 -8.775570e+00
         vertex 1.561254e+01 2.960000e+01 -3.678743e+00
      endloop
   endfacet
   facet normal 0.000000e+00 1.000000e+00 0.000000e+00
      outer loop
         vertex 9.238197e+01 2.960000e+01 -8.775570e+00
         vertex 9.338197e+01 2.960000e+01 -9.502112e+00
         vertex 1.561254e+01 2.960000e+01 -3.678743e+00
      endloop
   endfacet
   facet normal 0.000000e+00 1.000000e+00 0.000000e+00
      outer loop
         vertex 1.561254e+01 2.960000e+01 -3.678743e+00
         vertex 9.338197e+01 2.960000e+01 -9.502112e+00
         vertex 1.461254e+01 2.960000e+01 -4.405285e+00
      endloop
   endfacet
   facet normal 0.000000e+00 1.000000e+00 0.000000e+00
      outer loop
         vertex 9.461803e+01 2.960000e+01 -5.697887e+00
         vertex 1.001354e+02 2.960000e+01 3.600000e+00
         vertex 9.561803e+01 2.960000e+01 -6.424429e+00
      endloop
   endfacet
   facet normal 0.000000e+00 1.000000e+00 0.000000e+00
      outer loop
         vertex 9.561803e+01 2.960000e+01 -6.424429e+00
         vertex 1.001354e+02 2.960000e+01 3.600000e+00
         vertex 9.600000e+01 2.960000e+01 -7.600000e+00
      endloop
   endfacet
   facet normal 0.000000e+00 1.000000e+00 0.000000e+00
      outer loop
         vertex 1.001354e+02 2.960000e+01 3.600000e+00
         vertex 9.561803e+01 2.960000e+01 -3.432443e+01
         vertex 9.600000e+01 2.960000e+01 -7.600000e+00
      endloop
   endfacet
   facet normal 0.000000e+00 1.000000e+00 0.000000e+00
      outer loop
         vertex 9.600000e+01 2.960000e+01 -7.600000e+00
         vertex 9.561803e+01 2.960000e+01 -3.432443e+01
         vertex 9.561803e+01 2.960000e+01 -8.775570e+00
      endloop
   endfacet
   facet normal -0.000000e+00 1.000000e+00 0.000000e+00
      outer loop
         vertex 9.561803e+01 2.960000e+01 -3.432443e+01
         vertex 9.461803e+01 2.960000e+01 -3.359789e+01
         vertex 9.561803e+01 2.960000e+01 -8.775570e+00
      endloop
   endfacet
   facet normal 0.000000e+00 1.000000e+00 0.000000e+00
      outer loop
         vertex 9.561803e+01 2.960000e+01 -8.775570e+00
         vertex 9.461803e+01 2.960000e+01 -3.359789e+01
         vertex 9.461803e+01 2.960000e+01 -9.502112e+00
      endloop
   endfacet
   facet normal 0.000000e+00 1.000000e+00 0.000000e+00
      outer loop
         vertex 9.461803e+01 2.960000e+01 -3.359789e+01
         vertex 9.338197e+01 2.960000e+01 -3.359789e+01
         vertex 9.461803e+01 2.960000e+01 -9.502112e+00
      endloop
   endfacet
   facet normal 0.000000e+00 1.000000e+00 0.000000e+00
      outer loop
         vertex 9.461803e+01 2.960000e+01 -9.502112e+00
         vertex 9.338197e+01 2.960000e+01 -3.359789e+01
         vertex 9.338197e+01 2.960000e+01 -9.502112e+00
      endloop
   endfacet
   facet normal 0.000000e+00 1.000000e+00 0.000000e+00
      outer loop
         vertex 9.338197e+01 2.960000e+01 -3.359789e+01
         vertex 9.238197e+01 2.960000e+01 -3.432443e+01
         vertex 9.338197e+01 2.960000e+01 -9.502112e+00
      endloop
   endfacet
   facet normal 0.000000e+00 1.000000e+00 -0.000000e+00
      outer loop
         vertex 9.338197e+01 2.960000e+01 -9.502112e+00
         vertex 9.238197e+01 2.960000e+01 -3.432443e+01
         vertex 1.461254e+01 2.960000e+01 -4.405285e+00
      endloop
   endfacet
   facet normal 0.000000e+00 1.000000e+00 -0.000000e+00
      outer loop
         vertex 9.238197e+01 2.960000e+01 -3.432443e+01
         vertex 9.200000e+01 2.960000e+01 -3.550000e+01
         vertex 1.461254e+01 2.960000e+01 -4.405285e+00
      endloop
   endfacet
   facet normal 0.000000e+00 1.000000e+00 0.000000e+00
      outer loop
         vertex 1.461254e+01 2.960000e+01 -4.405285e+00
         vertex 9.200000e+01 2.960000e+01 -3.550000e+01
         vertex 1.337647e+01 2.960000e+01 -4.405285e+00
      endloop
   endfacet
   facet normal 0.000000e+00 1.000000e+00 0.000000e+00
      outer loop
         vertex 9.200000e+01 2.960000e+01 -3.550000e+01
         vertex 9.238197e+01 2.960000e+01 -3.667557e+01
         vertex 1.337647e+01 2.960000e+01 -4.405285e+00
      endloop
   endfacet
   facet normal 0.000000e+00 1.000000e+00 0.000000e+00
      outer loop
         vertex 9.238197e+01 2.960000e+01 -3.667557e+01
         vertex 9.338197e+01 2.960000e+01 -3.740211e+01
         vertex 1.337647e+01 2.960000e+01 -4.405285e+00
      endloop
   endfacet
   facet normal 0.000000e+00 1.000000e+00 0.000000e+00
      outer loop
         vertex 9.600000e+01 2.960000e+01 -3.550000e+01
         vertex 1.001354e+02 2.960000e+01 -1.064000e+02
         vertex 9.561803e+01 2.960000e+01 -3.667557e+01
      endloop
   endfacet
   facet normal 0.000000e+00 1.000000e+00 0.000000e+00
      outer loop
         vertex 9.561803e+01 2.960000e+01 -3.667557e+01
         vertex 1.001354e+02 2.960000e+01 -1.064000e+02
         vertex 9.461803e+01 2.960000e+01 -3.740211e+01
      endloop
   endfacet
   facet normal -0.000000e+00 1.000000e+00 0.000000e+00
      outer loop
         vertex 1.001354e+02 2.960000e+01 -1.064000e+02
         vertex 8.013542e+01 2.960000e+01 -1.012000e+02
         vertex 9.461803e+01 2.960000e+01 -3.740211e+01
      endloop
   endfacet
   facet normal 0.000000e+00 1.000000e+00 0.000000e+00
      outer loop
         vertex 9.461803e+01 2.960000e+01 -3.740211e+01
         vertex 8.013542e+01 2.960000e+01 -1.012000e+02
         vertex 9.338197e+01 2.960000e+01 -3.740211e+01
      endloop
   endfacet
   facet normal -0.000000e+00 1.000000e+00 0.000000e+00
      outer loop
         vertex 8.013542e+01 2.960000e+01 -1.012000e+02
         vertex 7.975346e+01 2.960000e+01 -1.000244e+02
         vertex 9.338197e+01 2.960000e+01 -3.740211e+01
      endloop
   endfacet
   facet normal 0.000000e+00 1.000000e+00 -0.000000e+00
      outer loop
         vertex 9.338197e+01 2.960000e+01 -3.740211e+01
         vertex 7.975346e+01 2.960000e+01 -5.602443e+01
         vertex 1.337647e+01 2.960000e+01 -4.405285e+00
      endloop
   endfacet
   facet normal -0.000000e+00 1.000000e+00 -0.000000e+00
      outer loop
         vertex 7.975346e+01 2.960000e+01 -5.602443e+01
         vertex 7.875346e+01 2.960000e+01 -5.529789e+01
         vertex 1.337647e+01 2.960000e+01 -4.405285e+00
      endloop
   endfacet
   facet normal 0.000000e+00 1.000000e+00 0.000000e+00
      outer loop
         vertex 1.337647e+01 2.960000e+01 -4.405285e+00
         vertex 7.875346e+01 2.960000e+01 -5.529789e+01
         vertex 1.237647e+01 2.960000e+01 -3.678743e+00
      endloop
   endfacet
   facet normal 0.000000e+00 1.000000e+00 -0.000000e+00
      outer loop
         vertex 7.875346e+01 2.960000e+01 -5.529789e+01
         vertex 7.751739e+01 2.960000e+01 -5.529789e+01
         vertex 1.237647e+01 2.960000e+01 -3.678743e+00
      endloop
   endfacet
   facet normal 0.000000e+00 1.000000e+00 -0.000000e+00
      outer loop
         vertex 1.237647e+01 2.960000e+01 -3.678743e+00
         vertex 1.051739e+01 2.960000e+01 -5.602443e+01
         vertex -9.864576e+00 2.960000e+01 -1.064000e+02
      endloop
   endfacet
   facet normal 0.000000e+00 1.000000e+00 -0.000000e+00
      outer loop
         vertex 1.051739e+01 2.960000e+01 -5.602443e+01
         vertex 1.013542e+01 2.960000e+01 -5.720000e+01
         vertex -9.864576e+00 2.960000e+01 -1.064000e+02
      endloop
   endfacet
   facet normal 0.000000e+00 1.000000e+00 0.000000e+00
      outer loop
         vertex -9.864576e+00 2.960000e+01 -1.064000e+02
         vertex 1.013542e+01 2.960000e+01 -1.012000e+02
         vertex 1.051739e+01 2.960000e+01 -1.023756e+02
      endloop
   endfacet
   facet normal 0.000000e+00 1.000000e+00 0.000000e+00
      outer loop
         vertex 1.337647e+01 2.960000e+01 -6.010593e-01
         vertex -9.864576e+00 2.960000e+01 3.600000e+00
         vertex 1.461254e+01 2.960000e+01 -6.010593e-01
      endloop
   endfacet
   facet normal 0.000000e+00 1.000000e+00 0.000000e+00
      outer loop
         vertex 1.013542e+01 2.960000e+01 -1.012000e+02
         vertex -9.864576e+00 2.960000e+01 -1.064000e+02
         vertex 1.051739e+01 2.960000e+01 -1.000244e+02
      endloop
   endfacet
   facet normal 0.000000e+00 1.000000e+00 0.000000e+00
      outer loop
         vertex -9.864576e+00 2.960000e+01 -1.064000e+02
         vertex 1.013542e+01 2.960000e+01 -5.720000e+01
         vertex 1.051739e+01 2.960000e+01 -1.000244e+02
      endloop
   endfacet
   facet normal 0.000000e+00 1.000000e+00 0.000000e+00
      outer loop
         vertex 1.051739e+01 2.960000e+01 -1.000244e+02
         vertex 1.013542e+01 2.960000e+01 -5.720000e+01
         vertex 1.151739e+01 2.960000e+01 -9.929789e+01
      endloop
   endfacet
   facet normal 0.000000e+00 1.000000e+00 0.000000e+00
      outer loop
         vertex 1.013542e+01 2.960000e+01 -5.720000e+01
         vertex 1.051739e+01 2.960000e+01 -5.837557e+01
         vertex 1.151739e+01 2.960000e+01 -9.929789e+01
      endloop
   endfacet
   facet normal 0.000000e+00 1.000000e+00 0.000000e+00
      outer loop
         vertex 1.151739e+01 2.960000e+01 -9.929789e+01
         vertex 1.051739e+01 2.960000e+01 -5.837557e+01
         vertex 1.275346e+01 2.960000e+01 -9.929789e+01
      endloop
   endfacet
   facet normal 0.000000e+00 1.000000e+00 0.000000e+00
      outer loop
         vertex 1.051739e+01 2.960000e+01 -5.837557e+01
         vertex 1.151739e+01 2.960000e+01 -5.910211e+01
         vertex 1.275346e+01 2.960000e+01 -9.929789e+01
      endloop
   endfacet
   facet normal 0.000000e+00 1.000000e+00 0.000000e+00
      outer loop
         vertex 1.275346e+01 2.960000e+01 -9.929789e+01
         vertex 1.151739e+01 2.960000e+01 -5.910211e+01
         vertex 1.375346e+01 2.960000e+01 -1.000244e+02
      endloop
   endfacet
   facet normal 0.000000e+00 1.000000e+00 0.000000e+00
      outer loop
         vertex 1.151739e+01 2.960000e+01 -5.910211e+01
         vertex 1.275346e+01 2.960000e+01 -5.910211e+01
         vertex 1.375346e+01 2.960000e+01 -1.000244e+02
      endloop
   endfacet
   facet normal 0.000000e+00 1.000000e+00 0.000000e+00
      outer loop
         vertex 1.375346e+01 2.960000e+01 -1.000244e+02
         vertex 1.275346e+01 2.960000e+01 -5.910211e+01
         vertex 1.413542e+01 2.960000e+01 -1.012000e+02
      endloop
   endfacet
   facet normal 0.000000e+00 1.000000e+00 0.000000e+00
      outer loop
         vertex 1.275346e+01 2.960000e+01 -5.910211e+01
         vertex 1.375346e+01 2.960000e+01 -5.837557e+01
         vertex 1.413542e+01 2.960000e+01 -1.012000e+02
      endloop
   endfacet
   facet normal 0.000000e+00 1.000000e+00 0.000000e+00
      outer loop
         vertex 1.375346e+01 2.960000e+01 -5.837557e+01
         vertex 1.413542e+01 2.960000e+01 -5.720000e+01
         vertex 1.413542e+01 2.960000e+01 -1.012000e+02
      endloop
   endfacet
   facet normal 0.000000e+00 1.000000e+00 0.000000e+00
      outer loop
         vertex 1.051739e+01 2.960000e+01 -5.602443e+01
         vertex 1.237647e+01 2.960000e+01 -3.678743e+00
         vertex 1.151739e+01 2.960000e+01 -5.529789e+01
      endloop
   endfacet
   facet normal 0.000000e+00 1.000000e+00 0.000000e+00
      outer loop
         vertex 1.151739e+01 2.960000e+01 -5.529789e+01
         vertex 1.237647e+01 2.960000e+01 -3.678743e+00
         vertex 1.275346e+01 2.960000e+01 -5.529789e+01
      endloop
   endfacet
   facet normal 0.000000e+00 1.000000e+00 0.000000e+00
      outer loop
         vertex 1.237647e+01 2.960000e+01 -3.678743e+00
         vertex 1.330000e+01 2.960000e+01 -5.070000e+01
         vertex 1.275346e+01 2.960000e+01 -5.529789e+01
      endloop
   endfacet
   facet normal 0.000000e+00 1.000000e+00 0.000000e+00
      outer loop
         vertex 1.275346e+01 2.960000e+01 -5.529789e+01
         vertex 1.330000e+01 2.960000e+01 -5.070000e+01
         vertex 1.375346e+01 2.960000e+01 -5.602443e+01
      endloop
   endfacet
   facet normal 0.000000e+00 1.000000e+00 0.000000e+00
      outer loop
         vertex 1.330000e+01 2.960000e+01 -5.070000e+01
         vertex 1.368197e+01 2.960000e+01 -5.187557e+01
         vertex 1.375346e+01 2.960000e+01 -5.602443e+01
      endloop
   endfacet
   facet normal 0.000000e+00 1.000000e+00 0.000000e+00
      outer loop
         vertex 1.375346e+01 2.960000e+01 -5.602443e+01
         vertex 1.368197e+01 2.960000e+01 -5.187557e+01
         vertex 1.413542e+01 2.960000e+01 -5.720000e+01
      endloop
   endfacet
   facet normal 0.000000e+00 1.000000e+00 0.000000e+00
      outer loop
         vertex 1.368197e+01 2.960000e+01 -5.187557e+01
         vertex 1.468197e+01 2.960000e+01 -5.260211e+01
         vertex 1.413542e+01 2.960000e+01 -5.720000e+01
      endloop
   endfacet
   facet normal 0.000000e+00 1.000000e+00 0.000000e+00
      outer loop
         vertex 1.413542e+01 2.960000e+01 -5.720000e+01
         vertex 1.468197e+01 2.960000e+01 -5.260211e+01
         vertex 1.413542e+01 2.960000e+01 -1.012000e+02
      endloop
   endfacet
   facet normal 0.000000e+00 1.000000e+00 0.000000e+00
      outer loop
         vertex 1.468197e+01 2.960000e+01 -5.260211e+01
         vertex 1.591803e+01 2.960000e+01 -5.260211e+01
         vertex 1.413542e+01 2.960000e+01 -1.012000e+02
      endloop
   endfacet
   facet normal 0.000000e+00 1.000000e+00 0.000000e+00
      outer loop
         vertex 1.591803e+01 2.960000e+01 -5.260211e+01
         vertex 1.691804e+01 2.960000e+01 -5.187557e+01
         vertex 1.413542e+01 2.960000e+01 -1.012000e+02
      endloop
   endfacet
   facet normal 0.000000e+00 1.000000e+00 0.000000e+00
      outer loop
         vertex 1.691804e+01 2.960000e+01 -5.187557e+01
         vertex 1.730000e+01 2.960000e+01 -5.070000e+01
         vertex 1.413542e+01 2.960000e+01 -1.012000e+02
      endloop
   endfacet
   facet normal 0.000000e+00 1.000000e+00 0.000000e+00
      outer loop
         vertex 1.468197e+01 2.960000e+01 -4.879789e+01
         vertex 1.237647e+01 2.960000e+01 -3.678743e+00
         vertex 1.591803e+01 2.960000e+01 -4.879789e+01
      endloop
   endfacet
   facet normal 0.000000e+00 1.000000e+00 0.000000e+00
      outer loop
         vertex 1.237647e+01 2.960000e+01 -3.678743e+00
         vertex 7.751739e+01 2.960000e+01 -5.529789e+01
         vertex 1.591803e+01 2.960000e+01 -4.879789e+01
      endloop
   endfacet
   facet normal 0.000000e+00 1.000000e+00 0.000000e+00
      outer loop
         vertex 1.591803e+01 2.960000e+01 -4.879789e+01
         vertex 7.751739e+01 2.960000e+01 -5.529789e+01
         vertex 1.691804e+01 2.960000e+01 -4.952443e+01
      endloop
   endfacet
   facet normal 0.000000e+00 1.000000e+00 -0.000000e+00
      outer loop
         vertex 7.751739e+01 2.960000e+01 -5.529789e+01
         vertex 7.651739e+01 2.960000e+01 -5.602443e+01
         vertex 1.691804e+01 2.960000e+01 -4.952443e+01
      endloop
   endfacet
   facet normal 0.000000e+00 1.000000e+00 0.000000e+00
      outer loop
         vertex 1.691804e+01 2.960000e+01 -4.952443e+01
         vertex 7.651739e+01 2.960000e+01 -5.602443e+01
         vertex 1.730000e+01 2.960000e+01 -5.070000e+01
      endloop
   endfacet
   facet normal 0.000000e+00 1.000000e+00 -0.000000e+00
      outer loop
         vertex 7.651739e+01 2.960000e+01 -5.602443e+01
         vertex 7.613542e+01 2.960000e+01 -5.720000e+01
         vertex 1.730000e+01 2.960000e+01 -5.070000e+01
      endloop
   endfacet
   facet normal 0.000000e+00 1.000000e+00 0.000000e+00
      outer loop
         vertex 1.730000e+01 2.960000e+01 -5.070000e+01
         vertex 7.613542e+01 2.960000e+01 -5.720000e+01
         vertex 1.413542e+01 2.960000e+01 -1.012000e+02
      endloop
   endfacet
   facet normal 0.000000e+00 1.000000e+00 0.000000e+00
      outer loop
         vertex 7.613542e+01 2.960000e+01 -5.720000e+01
         vertex 7.651739e+01 2.960000e+01 -5.837557e+01
         vertex 1.413542e+01 2.960000e+01 -1.012000e+02
      endloop
   endfacet
   facet normal 0.000000e+00 1.000000e+00 0.000000e+00
      outer loop
         vertex 1.413542e+01 2.960000e+01 -1.012000e+02
         vertex 7.651739e+01 2.960000e+01 -5.837557e+01
         vertex 1.375346e+01 2.960000e+01 -1.023756e+02
      endloop
   endfacet
   facet normal 0.000000e+00 1.000000e+00 0.000000e+00
      outer loop
         vertex 7.651739e+01 2.960000e+01 -5.837557e+01
         vertex 7.751739e+01 2.960000e+01 -5.910211e+01
         vertex 1.375346e+01 2.960000e+01 -1.023756e+02
      endloop
   endfacet
   facet normal 0.000000e+00 1.000000e+00 0.000000e+00
      outer loop
         vertex 1.375346e+01 2.960000e+01 -1.023756e+02
         vertex 7.751739e+01 2.960000e+01 -5.910211e+01
         vertex 1.275346e+01 2.960000e+01 -1.031021e+02
      endloop
   endfacet
   facet normal 0.000000e+00 1.000000e+00 0.000000e+00
      outer loop
         vertex 7.751739e+01 2.960000e+01 -5.910211e+01
         vertex 7.875346e+01 2.960000e+01 -5.910211e+01
         vertex 1.275346e+01 2.960000e+01 -1.031021e+02
      endloop
   endfacet
   facet normal 0.000000e+00 1.000000e+00 0.000000e+00
      outer loop
         vertex 1.275346e+01 2.960000e+01 -1.031021e+02
         vertex 7.751739e+01 2.960000e+01 -1.031021e+02
         vertex 1.001354e+02 2.960000e+01 -1.064000e+02
      endloop
   endfacet
   facet normal 0.000000e+00 1.000000e+00 0.000000e+00
      outer loop
         vertex 7.751739e+01 2.960000e+01 -1.031021e+02
         vertex 7.875346e+01 2.960000e+01 -1.031021e+02
         vertex 1.001354e+02 2.960000e+01 -1.064000e+02
      endloop
   endfacet
   facet normal -0.000000e+00 1.000000e+00 0.000000e+00
      outer loop
         vertex 1.001354e+02 2.960000e+01 -1.064000e+02
         vertex 7.875346e+01 2.960000e+01 -1.031021e+02
         vertex 7.975346e+01 2.960000e+01 -1.023756e+02
      endloop
   endfacet
   facet normal 0.000000e+00 1.000000e+00 0.000000e+00
      outer loop
         vertex 1.330000e+01 2.960000e+01 -5.070000e+01
         vertex 1.237647e+01 2.960000e+01 -3.678743e+00
         vertex 1.368197e+01 2.960000e+01 -4.952443e+01
      endloop
   endfacet
   facet normal 0.000000e+00 1.000000e+00 0.000000e+00
      outer loop
         vertex 1.237647e+01 2.960000e+01 -3.678743e+00
         vertex 1.468197e+01 2.960000e+01 -4.879789e+01
         vertex 1.368197e+01 2.960000e+01 -4.952443e+01
      endloop
   endfacet
   facet normal 0.000000e+00 1.000000e+00 0.000000e+00
      outer loop
         vertex 7.651739e+01 2.960000e+01 -1.023756e+02
         vertex 1.275346e+01 2.960000e+01 -1.031021e+02
         vertex 7.613542e+01 2.960000e+01 -1.012000e+02
      endloop
   endfacet
   facet normal 0.000000e+00 1.000000e+00 0.000000e+00
      outer loop
         vertex 1.275346e+01 2.960000e+01 -1.031021e+02
         vertex 7.875346e+01 2.960000e+01 -5.910211e+01
         vertex 7.613542e+01 2.960000e+01 -1.012000e+02
      endloop
   endfacet
   facet normal 0.000000e+00 1.000000e+00 0.000000e+00
      outer loop
         vertex 7.613542e+01 2.960000e+01 -1.012000e+02
         vertex 7.875346e+01 2.960000e+01 -5.910211e+01
         vertex 7.651739e+01 2.960000e+01 -1.000244e+02
      endloop
   endfacet
   facet normal 0.000000e+00 1.000000e+00 0.000000e+00
      outer loop
         vertex 7.875346e+01 2.960000e+01 -5.910211e+01
         vertex 7.975346e+01 2.960000e+01 -5.837557e+01
         vertex 7.651739e+01 2.960000e+01 -1.000244e+02
      endloop
   endfacet
   facet normal 0.000000e+00 1.000000e+00 0.000000e+00
      outer loop
         vertex 7.651739e+01 2.960000e+01 -1.000244e+02
         vertex 7.975346e+01 2.960000e+01 -5.837557e+01
         vertex 7.751739e+01 2.960000e+01 -9.929789e+01
      endloop
   endfacet
   facet normal 0.000000e+00 1.000000e+00 0.000000e+00
      outer loop
         vertex 7.975346e+01 2.960000e+01 -5.837557e+01
         vertex 8.013542e+01 2.960000e+01 -5.720000e+01
         vertex 7.751739e+01 2.960000e+01 -9.929789e+01
      endloop
   endfacet
   facet normal 0.000000e+00 1.000000e+00 0.000000e+00
      outer loop
         vertex 7.751739e+01 2.960000e+01 -9.929789e+01
         vertex 8.013542e+01 2.960000e+01 -5.720000e+01
         vertex 7.875346e+01 2.960000e+01 -9.929789e+01
      endloop
   endfacet
   facet normal 0.000000e+00 1.000000e+00 0.000000e+00
      outer loop
         vertex 7.975346e+01 2.960000e+01 -5.602443e+01
         vertex 9.338197e+01 2.960000e+01 -3.740211e+01
         vertex 8.013542e+01 2.960000e+01 -5.720000e+01
      endloop
   endfacet
   facet normal 0.000000e+00 1.000000e+00 0.000000e+00
      outer loop
         vertex 8.013542e+01 2.960000e+01 -5.720000e+01
         vertex 9.338197e+01 2.960000e+01 -3.740211e+01
         vertex 7.875346e+01 2.960000e+01 -9.929789e+01
      endloop
   endfacet
   facet normal 0.000000e+00 1.000000e+00 -0.000000e+00
      outer loop
         vertex 9.338197e+01 2.960000e+01 -3.740211e+01
         vertex 7.975346e+01 2.960000e+01 -1.000244e+02
         vertex 7.875346e+01 2.960000e+01 -9.929789e+01
      endloop
   endfacet
   facet normal 0.000000e+00 1.000000e+00 0.000000e+00
      outer loop
         vertex 1.199451e+01 2.960000e+01 -2.503172e+00
         vertex -9.864576e+00 2.960000e+01 3.600000e+00
         vertex 1.237647e+01 2.960000e+01 -1.327602e+00
      endloop
   endfacet
   facet normal 0.000000e+00 1.000000e+00 0.000000e+00
      outer loop
         vertex 7.751739e+01 2.960000e+01 -1.031021e+02
         vertex 1.275346e+01 2.960000e+01 -1.031021e+02
         vertex 7.651739e+01 2.960000e+01 -1.023756e+02
      endloop
   endfacet
   facet normal 0.000000e+00 1.000000e+00 0.000000e+00
      outer loop
         vertex 8.013542e+01 2.960000e+01 -1.012000e+02
         vertex 1.001354e+02 2.960000e+01 -1.064000e+02
         vertex 7.975346e+01 2.960000e+01 -1.023756e+02
      endloop
   endfacet
   facet normal 0.000000e+00 1.000000e+00 0.000000e+00
      outer loop
         vertex 1.151739e+01 2.960000e+01 -1.031021e+02
         vertex -9.864576e+00 2.960000e+01 -1.064000e+02
         vertex 1.051739e+01 2.960000e+01 -1.023756e+02
      endloop
   endfacet
   facet normal 0.000000e+00 -1.000000e+00 -0.000000e+00
      outer loop
         vertex 1.001354e+02 2.760000e+01 -1.064000e+02
         vertex 7.875346e+01 2.760000e+01 -1.031021e+02
         vertex -9.864576e+00 2.760000e+01 -1.064000e+02
      endloop
   endfacet
   facet normal 0.000000e+00 -1.000000e+00 -0.000000e+00
      outer loop
         vertex 7.875346e+01 2.760000e+01 -1.031021e+02
         vertex 7.751739e+01 2.760000e+01 -1.031021e+02
         vertex -9.864576e+00 2.760000e+01 -1.064000e+02
      endloop
   endfacet
   facet normal -0.000000e+00 -1.000000e+00 0.000000e+00
      outer loop
         vertex -9.864576e+00 2.760000e+01 -1.064000e+02
         vertex 1.013542e+01 2.760000e+01 -1.012000e+02
         vertex -9.864576e+00 2.760000e+01 3.600000e+00
      endloop
   endfacet
   facet normal -0.000000e+00 -1.000000e+00 0.000000e+00
      outer loop
         vertex 1.013542e+01 2.760000e+01 -1.012000e+02
         vertex 1.051739e+01 2.760000e+01 -1.000244e+02
         vertex -9.864576e+00 2.760000e+01 3.600000e+00
      endloop
   endfacet
   facet normal 0.000000e+00 -1.000000e+00 0.000000e+00
      outer loop
         vertex -9.864576e+00 2.760000e+01 3.600000e+00
         vertex 1.337647e+01 2.760000e+01 -6.010593e-01
         vertex 1.001354e+02 2.760000e+01 3.600000e+00
      endloop
   endfacet
   facet normal 0.000000e+00 -1.000000e+00 0.000000e+00
      outer loop
         vertex 1.337647e+01 2.760000e+01 -6.010593e-01
         vertex 1.461254e+01 2.760000e+01 -6.010593e-01
         vertex 1.001354e+02 2.760000e+01 3.600000e+00
      endloop
   endfacet
   facet normal 0.000000e+00 -1.000000e+00 0.000000e+00
      outer loop
         vertex 1.001354e+02 2.760000e+01 3.600000e+00
         vertex 9.600000e+01 2.760000e+01 -7.600000e+00
         vertex 1.001354e+02 2.760000e+01 -1.064000e+02
      endloop
   endfacet
   facet normal 0.000000e+00 -1.000000e+00 0.000000e+00
      outer loop
         vertex 9.600000e+01 2.760000e+01 -7.600000e+00
         vertex 9.561803e+01 2.760000e+01 -8.775570e+00
         vertex 1.001354e+02 2.760000e+01 -1.064000e+02
      endloop
   endfacet
   facet normal 0.000000e+00 -1.000000e+00 -0.000000e+00
      outer loop
         vertex 1.001354e+02 2.760000e+01 -1.064000e+02
         vertex 8.013542e+01 2.760000e+01 -1.012000e+02
         vertex 7.975346e+01 2.760000e+01 -1.023756e+02
      endloop
   endfacet
   facet normal 0.000000e+00 -1.000000e+00 0.000000e+00
      outer loop
         vertex 1.337647e+01 2.760000e+01 -6.010593e-01
         vertex -9.864576e+00 2.760000e+01 3.600000e+00
         vertex 1.237647e+01 2.760000e+01 -1.327602e+00
      endloop
   endfacet
   facet normal 0.000000e+00 -1.000000e+00 0.000000e+00
      outer loop
         vertex 9.600000e+01 2.760000e+01 -7.600000e+00
         vertex 1.001354e+02 2.760000e+01 3.600000e+00
         vertex 9.561803e+01 2.760000e+01 -6.424429e+00
      endloop
   endfacet
   facet normal 0.000000e+00 -1.000000e+00 0.000000e+00
      outer loop
         vertex 8.013542e+01 2.760000e+01 -1.012000e+02
         vertex 1.001354e+02 2.760000e+01 -1.064000e+02
         vertex 7.975346e+01 2.760000e+01 -1.000244e+02
      endloop
   endfacet
   facet normal 0.000000e+00 -1.000000e+00 -0.000000e+00
      outer loop
         vertex 1.001354e+02 2.760000e+01 -1.064000e+02
         vertex 9.600000e+01 2.760000e+01 -3.550000e+01
         vertex 7.975346e+01 2.760000e+01 -1.000244e+02
      endloop
   endfacet
   facet normal 0.000000e+00 -1.000000e+00 0.000000e+00
      outer loop
         vertex 7.975346e+01 2.760000e+01 -1.000244e+02
         vertex 9.600000e+01 2.760000e+01 -3.550000e+01
         vertex 7.875346e+01 2.760000e+01 -9.929789e+01
      endloop
   endfacet
   facet normal 0.000000e+00 -1.000000e+00 -0.000000e+00
      outer loop
         vertex 9.600000e+01 2.760000e+01 -3.550000e+01
         vertex 9.561803e+01 2.760000e+01 -3.667557e+01
         vertex 7.875346e+01 2.760000e+01 -9.929789e+01
      endloop
   endfacet
   facet normal 0.000000e+00 -1.000000e+00 0.000000e+00
      outer loop
         vertex 7.875346e+01 2.760000e+01 -9.929789e+01
         vertex 9.561803e+01 2.760000e+01 -3.667557e+01
         vertex 7.751739e+01 2.760000e+01 -9.929789e+01
      endloop
   endfacet
   facet normal 0.000000e+00 -1.000000e+00 -0.000000e+00
      outer loop
         vertex 9.561803e+01 2.760000e+01 -3.667557e+01
         vertex 9.461803e+01 2.760000e+01 -3.740211e+01
         vertex 7.751739e+01 2.760000e+01 -9.929789e+01
      endloop
   endfacet
   facet normal 0.000000e+00 -1.000000e+00 0.000000e+00
      outer loop
         vertex 7.751739e+01 2.760000e+01 -9.929789e+01
         vertex 9.461803e+01 2.760000e+01 -3.740211e+01
         vertex 7.651739e+01 2.760000e+01 -1.000244e+02
      endloop
   endfacet
   facet normal 0.000000e+00 -1.000000e+00 -0.000000e+00
      outer loop
         vertex 9.461803e+01 2.760000e+01 -3.740211e+01
         vertex 9.338197e+01 2.760000e+01 -3.740211e+01
         vertex 7.651739e+01 2.760000e+01 -1.000244e+02
      endloop
   endfacet
   facet normal 0.000000e+00 -1.000000e+00 0.000000e+00
      outer loop
         vertex 7.651739e+01 2.760000e+01 -1.000244e+02
         vertex 9.338197e+01 2.760000e+01 -3.740211e+01
         vertex 7.613542e+01 2.760000e+01 -1.012000e+02
      endloop
   endfacet
   facet normal 0.000000e+00 -1.000000e+00 -0.000000e+00
      outer loop
         vertex 9.338197e+01 2.760000e+01 -3.740211e+01
         vertex 9.238197e+01 2.760000e+01 -3.667557e+01
         vertex 7.613542e+01 2.760000e+01 -1.012000e+02
      endloop
   endfacet
   facet normal 0.000000e+00 -1.000000e+00 -0.000000e+00
      outer loop
         vertex 9.238197e+01 2.760000e+01 -3.667557e+01
         vertex 9.200000e+01 2.760000e+01 -3.550000e+01
         vertex 7.613542e+01 2.760000e+01 -1.012000e+02
      endloop
   endfacet
   facet normal 0.000000e+00 -1.000000e+00 0.000000e+00
      outer loop
         vertex 1.001354e+02 2.760000e+01 -1.064000e+02
         vertex 9.561803e+01 2.760000e+01 -8.775570e+00
         vertex 9.600000e+01 2.760000e+01 -3.550000e+01
      endloop
   endfacet
   facet normal 0.000000e+00 -1.000000e+00 0.000000e+00
      outer loop
         vertex 9.600000e+01 2.760000e+01 -3.550000e+01
         vertex 9.561803e+01 2.760000e+01 -8.775570e+00
         vertex 9.561803e+01 2.760000e+01 -3.432443e+01
      endloop
   endfacet
   facet normal 0.000000e+00 -1.000000e+00 0.000000e+00
      outer loop
         vertex 9.561803e+01 2.760000e+01 -8.775570e+00
         vertex 9.461803e+01 2.760000e+01 -9.502112e+00
         vertex 9.561803e+01 2.760000e+01 -3.432443e+01
      endloop
   endfacet
   facet normal 0.000000e+00 -1.000000e+00 0.000000e+00
      outer loop
         vertex 9.561803e+01 2.760000e+01 -3.432443e+01
         vertex 9.461803e+01 2.760000e+01 -9.502112e+00
         vertex 9.461803e+01 2.760000e+01 -3.359789e+01
      endloop
   endfacet
   facet normal 0.000000e+00 -1.000000e+00 0.000000e+00
      outer loop
         vertex 9.461803e+01 2.760000e+01 -9.502112e+00
         vertex 9.338197e+01 2.760000e+01 -9.502112e+00
         vertex 9.461803e+01 2.760000e+01 -3.359789e+01
      endloop
   endfacet
   facet normal 0.000000e+00 -1.000000e+00 0.000000e+00
      outer loop
         vertex 9.461803e+01 2.760000e+01 -3.359789e+01
         vertex 9.338197e+01 2.760000e+01 -9.502112e+00
         vertex 9.338197e+01 2.760000e+01 -3.359789e+01
      endloop
   endfacet
   facet normal 0.000000e+00 -1.000000e+00 0.000000e+00
      outer loop
         vertex 9.338197e+01 2.760000e+01 -9.502112e+00
         vertex 9.238197e+01 2.760000e+01 -8.775570e+00
         vertex 9.338197e+01 2.760000e+01 -3.359789e+01
      endloop
   endfacet
   facet normal 0.000000e+00 -1.000000e+00 0.000000e+00
      outer loop
         vertex 9.338197e+01 2.760000e+01 -3.359789e+01
         vertex 9.238197e+01 2.760000e+01 -8.775570e+00
         vertex 9.238197e+01 2.760000e+01 -3.432443e+01
      endloop
   endfacet
   facet normal 0.000000e+00 -1.000000e+00 0.000000e+00
      outer loop
         vertex 9.238197e+01 2.760000e+01 -8.775570e+00
         vertex 9.200000e+01 2.760000e+01 -7.600000e+00
         vertex 9.238197e+01 2.760000e+01 -3.432443e+01
      endloop
   endfacet
   facet normal 0.000000e+00 -1.000000e+00 0.000000e+00
      outer loop
         vertex 9.238197e+01 2.760000e+01 -3.432443e+01
         vertex 9.200000e+01 2.760000e+01 -7.600000e+00
         vertex 9.200000e+01 2.760000e+01 -3.550000e+01
      endloop
   endfacet
   facet normal 0.000000e+00 -1.000000e+00 0.000000e+00
      outer loop
         vertex 9.561803e+01 2.760000e+01 -6.424429e+00
         vertex 1.001354e+02 2.760000e+01 3.600000e+00
         vertex 9.461803e+01 2.760000e+01 -5.697887e+00
      endloop
   endfacet
   facet normal 0.000000e+00 -1.000000e+00 0.000000e+00
      outer loop
         vertex 9.461803e+01 2.760000e+01 -5.697887e+00
         vertex 1.001354e+02 2.760000e+01 3.600000e+00
         vertex 9.338197e+01 2.760000e+01 -5.697887e+00
      endloop
   endfacet
   facet normal 0.000000e+00 -1.000000e+00 0.000000e+00
      outer loop
         vertex 1.001354e+02 2.760000e+01 3.600000e+00
         vertex 1.461254e+01 2.760000e+01 -6.010593e-01
         vertex 9.338197e+01 2.760000e+01 -5.697887e+00
      endloop
   endfacet
   facet normal 0.000000e+00 -1.000000e+00 0.000000e+00
      outer loop
         vertex 9.338197e+01 2.760000e+01 -5.697887e+00
         vertex 1.461254e+01 2.760000e+01 -6.010593e-01
         vertex 9.238197e+01 2.760000e+01 -6.424429e+00
      endloop
   endfacet
   facet normal 0.000000e+00 -1.000000e+00 0.000000e+00
      outer loop
         vertex 1.461254e+01 2.760000e+01 -6.010593e-01
         vertex 1.561254e+01 2.760000e+01 -1.327602e+00
         vertex 9.238197e+01 2.760000e+01 -6.424429e+00
      endloop
   endfacet
   facet normal 0.000000e+00 -1.000000e+00 0.000000e+00
      outer loop
         vertex 9.238197e+01 2.760000e+01 -6.424429e+00
         vertex 1.561254e+01 2.760000e+01 -1.327602e+00
         vertex 9.200000e+01 2.760000e+01 -7.600000e+00
      endloop
   endfacet
   facet normal 0.000000e+00 -1.000000e+00 0.000000e+00
      outer loop
         vertex 1.561254e+01 2.760000e+01 -1.327602e+00
         vertex 1.599451e+01 2.760000e+01 -2.503172e+00
         vertex 9.200000e+01 2.760000e+01 -7.600000e+00
      endloop
   endfacet
   facet normal 0.000000e+00 -1.000000e+00 0.000000e+00
      outer loop
         vertex 9.200000e+01 2.760000e+01 -7.600000e+00
         vertex 1.599451e+01 2.760000e+01 -2.503172e+00
         vertex 9.200000e+01 2.760000e+01 -3.550000e+01
      endloop
   endfacet
   facet normal 0.000000e+00 -1.000000e+00 0.000000e+00
      outer loop
         vertex 1.599451e+01 2.760000e+01 -2.503172e+00
         vertex 1.561254e+01 2.760000e+01 -3.678743e+00
         vertex 9.200000e+01 2.760000e+01 -3.550000e+01
      endloop
   endfacet
   facet normal 0.000000e+00 -1.000000e+00 -0.000000e+00
      outer loop
         vertex 9.200000e+01 2.760000e+01 -3.550000e+01
         vertex 8.013542e+01 2.760000e+01 -5.720000e+01
         vertex 7.613542e+01 2.760000e+01 -1.012000e+02
      endloop
   endfacet
   facet normal 0.000000e+00 -1.000000e+00 -0.000000e+00
      outer loop
         vertex 8.013542e+01 2.760000e+01 -5.720000e+01
         vertex 7.975346e+01 2.760000e+01 -5.837557e+01
         vertex 7.613542e+01 2.760000e+01 -1.012000e+02
      endloop
   endfacet
   facet normal 0.000000e+00 -1.000000e+00 -0.000000e+00
      outer loop
         vertex 7.975346e+01 2.760000e+01 -5.837557e+01
         vertex 7.875346e+01 2.760000e+01 -5.910211e+01
         vertex 7.613542e+01 2.760000e+01 -1.012000e+02
      endloop
   endfacet
   facet normal 0.000000e+00 -1.000000e+00 -0.000000e+00
      outer loop
         vertex 7.875346e+01 2.760000e+01 -5.910211e+01
         vertex 7.751739e+01 2.760000e+01 -5.910211e+01
         vertex 7.613542e+01 2.760000e+01 -1.012000e+02
      endloop
   endfacet
   facet normal 0.000000e+00 -1.000000e+00 -0.000000e+00
      outer loop
         vertex 7.751739e+01 2.760000e+01 -5.910211e+01
         vertex 7.651739e+01 2.760000e+01 -5.837557e+01
         vertex 7.613542e+01 2.760000e+01 -1.012000e+02
      endloop
   endfacet
   facet normal 0.000000e+00 -1.000000e+00 0.000000e+00
      outer loop
         vertex 7.651739e+01 2.760000e+01 -5.837557e+01
         vertex 7.613542e+01 2.760000e+01 -5.720000e+01
         vertex 7.613542e+01 2.760000e+01 -1.012000e+02
      endloop
   endfacet
   facet normal 0.000000e+00 -1.000000e+00 0.000000e+00
      outer loop
         vertex 7.975346e+01 2.760000e+01 -5.602443e+01
         vertex 9.200000e+01 2.760000e+01 -3.550000e+01
         vertex 7.875346e+01 2.760000e+01 -5.529789e+01
      endloop
   endfacet
   facet normal 0.000000e+00 -1.000000e+00 0.000000e+00
      outer loop
         vertex 9.200000e+01 2.760000e+01 -3.550000e+01
         vertex 1.561254e+01 2.760000e+01 -3.678743e+00
         vertex 7.875346e+01 2.760000e+01 -5.529789e+01
      endloop
   endfacet
   facet normal 0.000000e+00 -1.000000e+00 0.000000e+00
      outer loop
         vertex 7.875346e+01 2.760000e+01 -5.529789e+01
         vertex 1.561254e+01 2.760000e+01 -3.678743e+00
         vertex 7.751739e+01 2.760000e+01 -5.529789e+01
      endloop
   endfacet
   facet normal 0.000000e+00 -1.000000e+00 0.000000e+00
      outer loop
         vertex 1.561254e+01 2.760000e+01 -3.678743e+00
         vertex 1.461254e+01 2.760000e+01 -4.405285e+00
         vertex 7.751739e+01 2.760000e+01 -5.529789e+01
      endloop
   endfacet
   facet normal 0.000000e+00 -1.000000e+00 0.000000e+00
      outer loop
         vertex 7.751739e+01 2.760000e+01 -5.529789e+01
         vertex 1.461254e+01 2.760000e+01 -4.405285e+00
         vertex 7.651739e+01 2.760000e+01 -5.602443e+01
      endloop
   endfacet
   facet normal 0.000000e+00 -1.000000e+00 0.000000e+00
      outer loop
         vertex 1.461254e+01 2.760000e+01 -4.405285e+00
         vertex 1.337647e+01 2.760000e+01 -4.405285e+00
         vertex 7.651739e+01 2.760000e+01 -5.602443e+01
      endloop
   endfacet
   facet normal 0.000000e+00 -1.000000e+00 0.000000e+00
      outer loop
         vertex 7.651739e+01 2.760000e+01 -5.602443e+01
         vertex 1.337647e+01 2.760000e+01 -4.405285e+00
         vertex 7.613542e+01 2.760000e+01 -5.720000e+01
      endloop
   endfacet
   facet normal 0.000000e+00 -1.000000e+00 0.000000e+00
      outer loop
         vertex 1.337647e+01 2.760000e+01 -4.405285e+00
         vertex 1.237647e+01 2.760000e+01 -3.678743e+00
         vertex 7.613542e+01 2.760000e+01 -5.720000e+01
      endloop
   endfacet
   facet normal 0.000000e+00 -1.000000e+00 0.000000e+00
      outer loop
         vertex 7.613542e+01 2.760000e+01 -5.720000e+01
         vertex 1.237647e+01 2.760000e+01 -3.678743e+00
         vertex 7.613542e+01 2.760000e+01 -1.012000e+02
      endloop
   endfacet
   facet normal 0.000000e+00 -1.000000e+00 0.000000e+00
      outer loop
         vertex 1.237647e+01 2.760000e+01 -1.327602e+00
         vertex -9.864576e+00 2.760000e+01 3.600000e+00
         vertex 1.199451e+01 2.760000e+01 -2.503172e+00
      endloop
   endfacet
   facet normal 0.000000e+00 -1.000000e+00 0.000000e+00
      outer loop
         vertex 1.199451e+01 2.760000e+01 -2.503172e+00
         vertex -9.864576e+00 2.760000e+01 3.600000e+00
         vertex 1.237647e+01 2.760000e+01 -3.678743e+00
      endloop
   endfacet
   facet normal 0.000000e+00 -1.000000e+00 0.000000e+00
      outer loop
         vertex -9.864576e+00 2.760000e+01 3.600000e+00
         vertex 1.013542e+01 2.760000e+01 -5.720000e+01
         vertex 1.237647e+01 2.760000e+01 -3.678743e+00
      endloop
   endfacet
   facet normal 0.000000e+00 -1.000000e+00 0.000000e+00
      outer loop
         vertex 1.237647e+01 2.760000e+01 -3.678743e+00
         vertex 1.691804e+01 2.760000e+01 -4.952443e+01
         vertex 7.613542e+01 2.760000e+01 -1.012000e+02
      endloop
   endfacet
   facet normal 0.000000e+00 -1.000000e+00 0.000000e+00
      outer loop
         vertex 1.691804e+01 2.760000e+01 -4.952443e+01
         vertex 1.730000e+01 2.760000e+01 -5.070000e+01
         vertex 7.613542e+01 2.760000e+01 -1.012000e+02
      endloop
   endfacet
   facet normal 0.000000e+00 -1.000000e+00 0.000000e+00
      outer loop
         vertex 7.613542e+01 2.760000e+01 -1.012000e+02
         vertex 1.730000e+01 2.760000e+01 -5.070000e+01
         vertex 7.651739e+01 2.760000e+01 -1.023756e+02
      endloop
   endfacet
   facet normal 0.000000e+00 -1.000000e+00 0.000000e+00
      outer loop
         vertex 1.730000e+01 2.760000e+01 -5.070000e+01
         vertex 1.691804e+01 2.760000e+01 -5.187557e+01
         vertex 7.651739e+01 2.760000e+01 -1.023756e+02
      endloop
   endfacet
   facet normal 0.000000e+00 -1.000000e+00 0.000000e+00
      outer loop
         vertex 1.691804e+01 2.760000e+01 -5.187557e+01
         vertex 1.591803e+01 2.760000e+01 -5.260211e+01
         vertex 7.651739e+01 2.760000e+01 -1.023756e+02
      endloop
   endfacet
   facet normal 0.000000e+00 -1.000000e+00 0.000000e+00
      outer loop
         vertex 1.591803e+01 2.760000e+01 -5.260211e+01
         vertex 1.468197e+01 2.760000e+01 -5.260211e+01
         vertex 7.651739e+01 2.760000e+01 -1.023756e+02
      endloop
   endfacet
   facet normal 0.000000e+00 -1.000000e+00 0.000000e+00
      outer loop
         vertex 1.468197e+01 2.760000e+01 -5.260211e+01
         vertex 1.368197e+01 2.760000e+01 -5.187557e+01
         vertex 7.651739e+01 2.760000e+01 -1.023756e+02
      endloop
   endfacet
   facet normal 0.000000e+00 -1.000000e+00 0.000000e+00
      outer loop
         vertex 1.591803e+01 2.760000e+01 -4.879789e+01
         vertex 1.237647e+01 2.760000e+01 -3.678743e+00
         vertex 1.468197e+01 2.760000e+01 -4.879789e+01
      endloop
   endfacet
   facet normal 0.000000e+00 -1.000000e+00 0.000000e+00
      outer loop
         vertex 1.468197e+01 2.760000e+01 -4.879789e+01
         vertex 1.237647e+01 2.760000e+01 -3.678743e+00
         vertex 1.368197e+01 2.760000e+01 -4.952443e+01
      endloop
   endfacet
   facet normal 0.000000e+00 -1.000000e+00 0.000000e+00
      outer loop
         vertex 1.237647e+01 2.760000e+01 -3.678743e+00
         vertex 1.051739e+01 2.760000e+01 -5.602443e+01
         vertex 1.368197e+01 2.760000e+01 -4.952443e+01
      endloop
   endfacet
   facet normal 0.000000e+00 -1.000000e+00 0.000000e+00
      outer loop
         vertex 1.368197e+01 2.760000e+01 -4.952443e+01
         vertex 1.051739e+01 2.760000e+01 -5.602443e+01
         vertex 1.330000e+01 2.760000e+01 -5.070000e+01
      endloop
   endfacet
   facet normal -0.000000e+00 -1.000000e+00 0.000000e+00
      outer loop
         vertex 1.051739e+01 2.760000e+01 -5.602443e+01
         vertex 1.151739e+01 2.760000e+01 -5.529789e+01
         vertex 1.330000e+01 2.760000e+01 -5.070000e+01
      endloop
   endfacet
   facet normal 0.000000e+00 -1.000000e+00 0.000000e+00
      outer loop
         vertex 1.330000e+01 2.760000e+01 -5.070000e+01
         vertex 1.151739e+01 2.760000e+01 -5.529789e+01
         vertex 1.368197e+01 2.760000e+01 -5.187557e+01
      endloop
   endfacet
   facet normal 0.000000e+00 -1.000000e+00 0.000000e+00
      outer loop
         vertex 1.151739e+01 2.760000e+01 -5.529789e+01
         vertex 1.275346e+01 2.760000e+01 -5.529789e+01
         vertex 1.368197e+01 2.760000e+01 -5.187557e+01
      endloop
   endfacet
   facet normal 0.000000e+00 -1.000000e+00 0.000000e+00
      outer loop
         vertex 1.368197e+01 2.760000e+01 -5.187557e+01
         vertex 1.375346e+01 2.760000e+01 -5.602443e+01
         vertex 7.651739e+01 2.760000e+01 -1.023756e+02
      endloop
   endfacet
   facet normal 0.000000e+00 -1.000000e+00 0.000000e+00
      outer loop
         vertex 1.375346e+01 2.760000e+01 -5.602443e+01
         vertex 1.413542e+01 2.760000e+01 -5.720000e+01
         vertex 7.651739e+01 2.760000e+01 -1.023756e+02
      endloop
   endfacet
   facet normal 0.000000e+00 -1.000000e+00 0.000000e+00
      outer loop
         vertex 7.651739e+01 2.760000e+01 -1.023756e+02
         vertex 1.413542e+01 2.760000e+01 -5.720000e+01
         vertex 7.751739e+01 2.760000e+01 -1.031021e+02
      endloop
   endfacet
   facet normal 0.000000e+00 -1.000000e+00 0.000000e+00
      outer loop
         vertex 1.413542e+01 2.760000e+01 -5.720000e+01
         vertex 1.375346e+01 2.760000e+01 -5.837557e+01
         vertex 7.751739e+01 2.760000e+01 -1.031021e+02
      endloop
   endfacet
   facet normal 0.000000e+00 -1.000000e+00 -0.000000e+00
      outer loop
         vertex 7.751739e+01 2.760000e+01 -1.031021e+02
         vertex 1.275346e+01 2.760000e+01 -1.031021e+02
         vertex -9.864576e+00 2.760000e+01 -1.064000e+02
      endloop
   endfacet
   facet normal 0.000000e+00 -1.000000e+00 -0.000000e+00
      outer loop
         vertex 1.275346e+01 2.760000e+01 -1.031021e+02
         vertex 1.151739e+01 2.760000e+01 -1.031021e+02
         vertex -9.864576e+00 2.760000e+01 -1.064000e+02
      endloop
   endfacet
   facet normal -0.000000e+00 -1.000000e+00 0.000000e+00
      outer loop
         vertex -9.864576e+00 2.760000e+01 -1.064000e+02
         vertex 1.151739e+01 2.760000e+01 -1.031021e+02
         vertex 1.051739e+01 2.760000e+01 -1.023756e+02
      endloop
   endfacet
   facet normal 0.000000e+00 -1.000000e+00 0.000000e+00
      outer loop
         vertex 8.013542e+01 2.760000e+01 -5.720000e+01
         vertex 9.200000e+01 2.760000e+01 -3.550000e+01
         vertex 7.975346e+01 2.760000e+01 -5.602443e+01
      endloop
   endfacet
   facet normal 0.000000e+00 -1.000000e+00 0.000000e+00
      outer loop
         vertex 1.691804e+01 2.760000e+01 -4.952443e+01
         vertex 1.237647e+01 2.760000e+01 -3.678743e+00
         vertex 1.591803e+01 2.760000e+01 -4.879789e+01
      endloop
   endfacet
   facet normal 0.000000e+00 -1.000000e+00 0.000000e+00
      outer loop
         vertex 1.051739e+01 2.760000e+01 -5.602443e+01
         vertex 1.237647e+01 2.760000e+01 -3.678743e+00
         vertex 1.013542e+01 2.760000e+01 -5.720000e+01
      endloop
   endfacet
   facet normal 0.000000e+00 -1.000000e+00 -0.000000e+00
      outer loop
         vertex 1.375346e+01 2.760000e+01 -5.602443e+01
         vertex 1.368197e+01 2.760000e+01 -5.187557e+01
         vertex 1.275346e+01 2.760000e+01 -5.529789e+01
      endloop
   endfacet
   facet normal 0.000000e+00 -1.000000e+00 0.000000e+00
      outer loop
         vertex 7.875346e+01 2.760000e+01 -1.031021e+02
         vertex 1.001354e+02 2.760000e+01 -1.064000e+02
         vertex 7.975346e+01 2.760000e+01 -1.023756e+02
      endloop
   endfacet
   facet normal 0.000000e+00 -1.000000e+00 0.000000e+00
      outer loop
         vertex 1.013542e+01 2.760000e+01 -1.012000e+02
         vertex -9.864576e+00 2.760000e+01 -1.064000e+02
         vertex 1.051739e+01 2.760000e+01 -1.023756e+02
      endloop
   endfacet
   facet normal 0.000000e+00 -1.000000e+00 0.000000e+00
      outer loop
         vertex 1.375346e+01 2.760000e+01 -1.023756e+02
         vertex 7.751739e+01 2.760000e+01 -1.031021e+02
         vertex 1.413542e+01 2.760000e+01 -1.012000e+02
      endloop
   endfacet
   facet normal 0.000000e+00 -1.000000e+00 0.000000e+00
      outer loop
         vertex 7.751739e+01 2.760000e+01 -1.031021e+02
         vertex 1.375346e+01 2.760000e+01 -5.837557e+01
         vertex 1.413542e+01 2.760000e+01 -1.012000e+02
      endloop
   endfacet
   facet normal 0.000000e+00 -1.000000e+00 0.000000e+00
      outer loop
         vertex 1.413542e+01 2.760000e+01 -1.012000e+02
         vertex 1.375346e+01 2.760000e+01 -5.837557e+01
         vertex 1.375346e+01 2.760000e+01 -1.000244e+02
      endloop
   endfacet
   facet normal 0.000000e+00 -1.000000e+00 0.000000e+00
      outer loop
         vertex 1.375346e+01 2.760000e+01 -5.837557e+01
         vertex 1.275346e+01 2.760000e+01 -5.910211e+01
         vertex 1.375346e+01 2.760000e+01 -1.000244e+02
      endloop
   endfacet
   facet normal 0.000000e+00 -1.000000e+00 0.000000e+00
      outer loop
         vertex 1.375346e+01 2.760000e+01 -1.000244e+02
         vertex 1.275346e+01 2.760000e+01 -5.910211e+01
         vertex 1.275346e+01 2.760000e+01 -9.929789e+01
      endloop
   endfacet
   facet normal 0.000000e+00 -1.000000e+00 0.000000e+00
      outer loop
         vertex 1.275346e+01 2.760000e+01 -5.910211e+01
         vertex 1.151739e+01 2.760000e+01 -5.910211e+01
         vertex 1.275346e+01 2.760000e+01 -9.929789e+01
      endloop
   endfacet
   facet normal 0.000000e+00 -1.000000e+00 0.000000e+00
      outer loop
         vertex 1.275346e+01 2.760000e+01 -9.929789e+01
         vertex 1.151739e+01 2.760000e+01 -5.910211e+01
         vertex 1.151739e+01 2.760000e+01 -9.929789e+01
      endloop
   endfacet
   facet normal 0.000000e+00 -1.000000e+00 0.000000e+00
      outer loop
         vertex 1.151739e+01 2.760000e+01 -5.910211e+01
         vertex 1.051739e+01 2.760000e+01 -5.837557e+01
         vertex 1.151739e+01 2.760000e+01 -9.929789e+01
      endloop
   endfacet
   facet normal 0.000000e+00 -1.000000e+00 0.000000e+00
      outer loop
         vertex 1.151739e+01 2.760000e+01 -9.929789e+01
         vertex 1.051739e+01 2.760000e+01 -5.837557e+01
         vertex 1.051739e+01 2.760000e+01 -1.000244e+02
      endloop
   endfacet
   facet normal 0.000000e+00 -1.000000e+00 0.000000e+00
      outer loop
         vertex 1.051739e+01 2.760000e+01 -5.837557e+01
         vertex 1.013542e+01 2.760000e+01 -5.720000e+01
         vertex 1.051739e+01 2.760000e+01 -1.000244e+02
      endloop
   endfacet
   facet normal -0.000000e+00 -1.000000e+00 -0.000000e+00
      outer loop
         vertex 1.051739e+01 2.760000e+01 -1.000244e+02
         vertex 1.013542e+01 2.760000e+01 -5.720000e+01
         vertex -9.864576e+00 2.760000e+01 3.600000e+00
      endloop
   endfacet
   facet normal 0.000000e+00 -1.000000e+00 0.000000e+00
      outer loop
         vertex 1.275346e+01 2.760000e+01 -1.031021e+02
         vertex 7.751739e+01 2.760000e+01 -1.031021e+02
         vertex 1.375346e+01 2.760000e+01 -1.023756e+02
      endloop
   endfacet
   facet normal 1.000000e+00 -0.000000e+00 0.000000e+00
      outer loop
         vertex 1.001354e+02 2.960000e+01 3.600000e+00
         vertex 1.001354e+02 2.760000e+01 3.600000e+00
         vertex 1.001354e+02 2.760000e+01 -1.064000e+02
      endloop
   endfacet
   facet normal 1.000000e+00 0.000000e+00 0.000000e+00
      outer loop
         vertex 1.001354e+02 2.960000e+01 3.600000e+00
         vertex 1.001354e+02 2.760000e+01 -1.064000e+02
         vertex 1.001354e+02 2.960000e+01 -1.064000e+02
      endloop
   endfacet
   facet normal 0.000000e+00 0.000000e+00 -1.000000e+00
      outer loop
         vertex 1.001354e+02 2.960000e+01 -1.064000e+02
         vertex 1.001354e+02 2.760000e+01 -1.064000e+02
         vertex -9.864576e+00 2.760000e+01 -1.064000e+02
      endloop
   endfacet
   facet normal 0.000000e+00 0.000000e+00 -1.000000e+00
      outer loop
         vertex 1.001354e+02 2.960000e+01 -1.064000e+02
         vertex -9.864576e+00 2.760000e+01 -1.064000e+02
         vertex -9.864576e+00 2.960000e+01 -1.064000e+02
      endloop
   endfacet
   facet normal -1.000000e+00 0.000000e+00 0.000000e+00
      outer loop
         vertex -9.864576e+00 2.960000e+01 -1.064000e+02
         vertex -9.864576e+00 2.760000e+01 -1.064000e+02
         vertex -9.864576e+00 2.760000e+01 3.600000e+00
      endloop
   endfacet
   facet normal -1.000000e+00 0.000000e+00 0.000000e+00
      outer loop
         vertex -9.864576e+00 2.960000e+01 -1.064000e+02
         vertex -9.864576e+00 2.760000e+01 3.600000e+00
         vertex -9.864576e+00 2.960000e+01 3.600000e+00
      endloop
   endfacet
   facet normal 0.000000e+00 0.000000e+00 1.000000e+00
      outer loop
         vertex -9.864576e+00 2.960000e+01 3.600000e+00
         vertex -9.864576e+00 2.760000e+01 3.600000e+00
         vertex 1.001354e+02 2.760000e+01 3.600000e+00
      endloop
   endfacet
   facet normal 0.000000e+00 -0.000000e+00 1.000000e+00
      outer loop
         vertex -9.864576e+00 2.960000e+01 3.600000e+00
         vertex 1.001354e+02 2.760000e+01 3.600000e+00
         vertex 1.001354e+02 2.960000e+01 3.600000e+00
      endloop
   endfacet
   facet normal -9.510567e-01 0.000000e+00 3.090165e-01
      outer loop
         vertex 1.375346e+01 2.960000e+01 -5.837557e+01
         vertex 1.375346e+01 2.760000e+01 -5.837557e+01
         vertex 1.413542e+01 2.760000e+01 -5.720000e+01
      endloop
   endfacet
   facet normal -9.510567e-01 0.000000e+00 3.090165e-01
      outer loop
         vertex 1.413542e+01 2.960000e+01 -5.720000e+01
         vertex 1.375346e+01 2.960000e+01 -5.837557e+01
         vertex 1.413542e+01 2.760000e+01 -5.720000e+01
      endloop
   endfacet
   facet normal -5.877837e-01 0.000000e+00 8.090181e-01
      outer loop
         vertex 1.275346e+01 2.960000e+01 -5.910211e+01
         vertex 1.275346e+01 2.760000e+01 -5.910211e+01
         vertex 1.375346e+01 2.760000e+01 -5.837557e+01
      endloop
   endfacet
   facet normal -5.877837e-01 0.000000e+00 8.090181e-01
      outer loop
         vertex 1.375346e+01 2.960000e+01 -5.837557e+01
         vertex 1.275346e+01 2.960000e+01 -5.910211e+01
         vertex 1.375346e+01 2.760000e+01 -5.837557e+01
      endloop
   endfacet
   facet normal 0.000000e+00 0.000000e+00 1.000000e+00
      outer loop
         vertex 1.151739e+01 2.960000e+01 -5.910211e+01
         vertex 1.151739e+01 2.760000e+01 -5.910211e+01
         vertex 1.275346e+01 2.760000e+01 -5.910211e+01
      endloop
   endfacet
   facet normal -0.000000e+00 0.000000e+00 1.000000e+00
      outer loop
         vertex 1.275346e+01 2.960000e+01 -5.910211e+01
         vertex 1.151739e+01 2.960000e+01 -5.910211e+01
         vertex 1.275346e+01 2.760000e+01 -5.910211e+01
      endloop
   endfacet
   facet normal 5.877837e-01 -0.000000e+00 8.090181e-01
      outer loop
         vertex 1.051739e+01 2.960000e+01 -5.837557e+01
         vertex 1.051739e+01 2.760000e+01 -5.837557e+01
         vertex 1.151739e+01 2.760000e+01 -5.910211e+01
      endloop
   endfacet
   facet normal 5.877837e-01 0.000000e+00 8.090181e-01
      outer loop
         vertex 1.151739e+01 2.960000e+01 -5.910211e+01
         vertex 1.051739e+01 2.960000e+01 -5.837557e+01
         vertex 1.151739e+01 2.760000e+01 -5.910211e+01
      endloop
   endfacet
   facet normal 9.510567e-01 -0.000000e+00 3.090165e-01
      outer loop
         vertex 1.013542e+01 2.960000e+01 -5.720000e+01
         vertex 1.013542e+01 2.760000e+01 -5.720000e+01
         vertex 1.051739e+01 2.760000e+01 -5.837557e+01
      endloop
   endfacet
   facet normal 9.510567e-01 0.000000e+00 3.090165e-01
      outer loop
         vertex 1.051739e+01 2.960000e+01 -5.837557e+01
         vertex 1.013542e+01 2.960000e+01 -5.720000e+01
         vertex 1.051739e+01 2.760000e+01 -5.837557e+01
      endloop
   endfacet
   facet normal 9.510567e-01 0.000000e+00 -3.090165e-01
      outer loop
         vertex 1.051739e+01 2.960000e+01 -5.602443e+01
         vertex 1.051739e+01 2.760000e+01 -5.602443e+01
         vertex 1.013542e+01 2.760000e+01 -5.720000e+01
      endloop
   endfacet
   facet normal 9.510567e-01 0.000000e+00 -3.090165e-01
      outer loop
         vertex 1.013542e+01 2.960000e+01 -5.720000e+01
         vertex 1.051739e+01 2.960000e+01 -5.602443e+01
         vertex 1.013542e+01 2.760000e+01 -5.720000e+01
      endloop
   endfacet
   facet normal 5.877857e-01 0.000000e+00 -8.090166e-01
      outer loop
         vertex 1.151739e+01 2.960000e+01 -5.529789e+01
         vertex 1.151739e+01 2.760000e+01 -5.529789e+01
         vertex 1.051739e+01 2.760000e+01 -5.602443e+01
      endloop
   endfacet
   facet normal 5.877857e-01 0.000000e+00 -8.090166e-01
      outer loop
         vertex 1.051739e+01 2.960000e+01 -5.602443e+01
         vertex 1.151739e+01 2.960000e+01 -5.529789e+01
         vertex 1.051739e+01 2.760000e+01 -5.602443e+01
      endloop
   endfacet
   facet normal 0.000000e+00 0.000000e+00 -1.000000e+00
      outer loop
         vertex 1.275346e+01 2.960000e+01 -5.529789e+01
         vertex 1.275346e+01 2.760000e+01 -5.529789e+01
         vertex 1.151739e+01 2.760000e+01 -5.529789e+01
      endloop
   endfacet
   facet normal -0.000000e+00 0.000000e+00 -1.000000e+00
      outer loop
         vertex 1.151739e+01 2.960000e+01 -5.529789e+01
         vertex 1.275346e+01 2.960000e+01 -5.529789e+01
         vertex 1.151739e+01 2.760000e+01 -5.529789e+01
      endloop
   endfacet
   facet normal -5.877857e-01 0.000000e+00 -8.090166e-01
      outer loop
         vertex 1.375346e+01 2.960000e+01 -5.602443e+01
         vertex 1.375346e+01 2.760000e+01 -5.602443e+01
         vertex 1.275346e+01 2.760000e+01 -5.529789e+01
      endloop
   endfacet
   facet normal -5.877857e-01 0.000000e+00 -8.090166e-01
      outer loop
         vertex 1.275346e+01 2.960000e+01 -5.529789e+01
         vertex 1.375346e+01 2.960000e+01 -5.602443e+01
         vertex 1.275346e+01 2.760000e+01 -5.529789e+01
      endloop
   endfacet
   facet normal -9.510567e-01 0.000000e+00 -3.090165e-01
      outer loop
         vertex 1.413542e+01 2.960000e+01 -5.720000e+01
         vertex 1.413542e+01 2.760000e+01 -5.720000e+01
         vertex 1.375346e+01 2.760000e+01 -5.602443e+01
      endloop
   endfacet
   facet normal -9.510567e-01 0.000000e+00 -3.090165e-01
      outer loop
         vertex 1.375346e+01 2.960000e+01 -5.602443e+01
         vertex 1.413542e+01 2.960000e+01 -5.720000e+01
         vertex 1.375346e+01 2.760000e+01 -5.602443e+01
      endloop
   endfacet
   facet normal -9.510570e-01 0.000000e+00 3.090156e-01
      outer loop
         vertex 1.375346e+01 2.960000e+01 -1.023756e+02
         vertex 1.375346e+01 2.760000e+01 -1.023756e+02
         vertex 1.413542e+01 2.760000e+01 -1.012000e+02
      endloop
   endfacet
   facet normal -9.510570e-01 0.000000e+00 3.090156e-01
      outer loop
         vertex 1.413542e+01 2.960000e+01 -1.012000e+02
         vertex 1.375346e+01 2.960000e+01 -1.023756e+02
         vertex 1.413542e+01 2.760000e+01 -1.012000e+02
      endloop
   endfacet
   facet normal -5.877837e-01 0.000000e+00 8.090181e-01
      outer loop
         vertex 1.275346e+01 2.960000e+01 -1.031021e+02
         vertex 1.275346e+01 2.760000e+01 -1.031021e+02
         vertex 1.375346e+01 2.760000e+01 -1.023756e+02
      endloop
   endfacet
   facet normal -5.877837e-01 0.000000e+00 8.090181e-01
      outer loop
         vertex 1.375346e+01 2.960000e+01 -1.023756e+02
         vertex 1.275346e+01 2.960000e+01 -1.031021e+02
         vertex 1.375346e+01 2.760000e+01 -1.023756e+02
      endloop
   endfacet
   facet normal 0.000000e+00 0.000000e+00 1.000000e+00
      outer loop
         vertex 1.151739e+01 2.960000e+01 -1.031021e+02
         vertex 1.151739e+01 2.760000e+01 -1.031021e+02
         vertex 1.275346e+01 2.760000e+01 -1.031021e+02
      endloop
   endfacet
   facet normal -0.000000e+00 0.000000e+00 1.000000e+00
      outer loop
         vertex 1.275346e+01 2.960000e+01 -1.031021e+02
         vertex 1.151739e+01 2.960000e+01 -1.031021e+02
         vertex 1.275346e+01 2.760000e+01 -1.031021e+02
      endloop
   endfacet
   facet normal 5.877837e-01 -0.000000e+00 8.090181e-01
      outer loop
         vertex 1.051739e+01 2.960000e+01 -1.023756e+02
         vertex 1.051739e+01 2.760000e+01 -1.023756e+02
         vertex 1.151739e+01 2.760000e+01 -1.031021e+02
      endloop
   endfacet
   facet normal 5.877837e-01 0.000000e+00 8.090181e-01
      outer loop
         vertex 1.151739e+01 2.960000e+01 -1.031021e+02
         vertex 1.051739e+01 2.960000e+01 -1.023756e+02
         vertex 1.151739e+01 2.760000e+01 -1.031021e+02
      endloop
   endfacet
   facet normal 9.510570e-01 -0.000000e+00 3.090156e-01
      outer loop
         vertex 1.013542e+01 2.960000e+01 -1.012000e+02
         vertex 1.013542e+01 2.760000e+01 -1.012000e+02
         vertex 1.051739e+01 2.760000e+01 -1.023756e+02
      endloop
   endfacet
   facet normal 9.510570e-01 0.000000e+00 3.090156e-01
      outer loop
         vertex 1.051739e+01 2.960000e+01 -1.023756e+02
         vertex 1.013542e+01 2.960000e+01 -1.012000e+02
         vertex 1.051739e+01 2.760000e+01 -1.023756e+02
      endloop
   endfacet
   facet normal 9.510564e-01 0.000000e+00 -3.090174e-01
      outer loop
         vertex 1.051739e+01 2.960000e+01 -1.000244e+02
         vertex 1.051739e+01 2.760000e+01 -1.000244e+02
         vertex 1.013542e+01 2.760000e+01 -1.012000e+02
      endloop
   endfacet
   facet normal 9.510564e-01 0.000000e+00 -3.090174e-01
      outer loop
         vertex 1.013542e+01 2.960000e+01 -1.012000e+02
         vertex 1.051739e+01 2.960000e+01 -1.000244e+02
         vertex 1.013542e+01 2.760000e+01 -1.012000e+02
      endloop
   endfacet
   facet normal 5.877837e-01 0.000000e+00 -8.090181e-01
      outer loop
         vertex 1.151739e+01 2.960000e+01 -9.929789e+01
         vertex 1.151739e+01 2.760000e+01 -9.929789e+01
         vertex 1.051739e+01 2.760000e+01 -1.000244e+02
      endloop
   endfacet
   facet normal 5.877837e-01 0.000000e+00 -8.090181e-01
      outer loop
         vertex 1.051739e+01 2.960000e+01 -1.000244e+02
         vertex 1.151739e+01 2.960000e+01 -9.929789e+01
         vertex 1.051739e+01 2.760000e+01 -1.000244e+02
      endloop
   endfacet
   facet normal 0.000000e+00 0.000000e+00 -1.000000e+00
      outer loop
         vertex 1.275346e+01 2.960000e+01 -9.929789e+01
         vertex 1.275346e+01 2.760000e+01 -9.929789e+01
         vertex 1.151739e+01 2.760000e+01 -9.929789e+01
      endloop
   endfacet
   facet normal -0.000000e+00 0.000000e+00 -1.000000e+00
      outer loop
         vertex 1.151739e+01 2.960000e+01 -9.929789e+01
         vertex 1.275346e+01 2.960000e+01 -9.929789e+01
         vertex 1.151739e+01 2.760000e+01 -9.929789e+01
      endloop
   endfacet
   facet normal -5.877837e-01 0.000000e+00 -8.090181e-01
      outer loop
         vertex 1.375346e+01 2.960000e+01 -1.000244e+02
         vertex 1.375346e+01 2.760000e+01 -1.000244e+02
         vertex 1.275346e+01 2.760000e+01 -9.929789e+01
      endloop
   endfacet
   facet normal -5.877837e-01 0.000000e+00 -8.090181e-01
      outer loop
         vertex 1.275346e+01 2.960000e+01 -9.929789e+01
         vertex 1.375346e+01 2.960000e+01 -1.000244e+02
         vertex 1.275346e+01 2.760000e+01 -9.929789e+01
      endloop
   endfacet
   facet normal -9.510564e-01 0.000000e+00 -3.090174e-01
      outer loop
         vertex 1.413542e+01 2.960000e+01 -1.012000e+02
         vertex 1.413542e+01 2.760000e+01 -1.012000e+02
         vertex 1.375346e+01 2.760000e+01 -1.000244e+02
      endloop
   endfacet
   facet normal -9.510564e-01 0.000000e+00 -3.090174e-01
      outer loop
         vertex 1.375346e+01 2.960000e+01 -1.000244e+02
         vertex 1.413542e+01 2.960000e+01 -1.012000e+02
         vertex 1.375346e+01 2.760000e+01 -1.000244e+02
      endloop
   endfacet
   facet normal -9.510570e-01 0.000000e+00 3.090156e-01
      outer loop
         vertex 7.975346e+01 2.960000e+01 -1.023756e+02
         vertex 7.975346e+01 2.760000e+01 -1.023756e+02
         vertex 8.013542e+01 2.760000e+01 -1.012000e+02
      endloop
   endfacet
   facet normal -9.510570e-01 0.000000e+00 3.090156e-01
      outer loop
         vertex 8.013542e+01 2.960000e+01 -1.012000e+02
         vertex 7.975346e+01 2.960000e+01 -1.023756e+02
         vertex 8.013542e+01 2.760000e+01 -1.012000e+02
      endloop
   endfacet
   facet normal -5.877837e-01 0.000000e+00 8.090181e-01
      outer loop
         vertex 7.875346e+01 2.960000e+01 -1.031021e+02
         vertex 7.875346e+01 2.760000e+01 -1.031021e+02
         vertex 7.975346e+01 2.760000e+01 -1.023756e+02
      endloop
   endfacet
   facet normal -5.877837e-01 0.000000e+00 8.090181e-01
      outer loop
         vertex 7.975346e+01 2.960000e+01 -1.023756e+02
         vertex 7.875346e+01 2.960000e+01 -1.031021e+02
         vertex 7.975346e+01 2.760000e+01 -1.023756e+02
      endloop
   endfacet
   facet normal 0.000000e+00 0.000000e+00 1.000000e+00
      outer loop
         vertex 7.751739e+01 2.960000e+01 -1.031021e+02
         vertex 7.751739e+01 2.760000e+01 -1.031021e+02
         vertex 7.875346e+01 2.760000e+01 -1.031021e+02
      endloop
   endfacet
   facet normal -0.000000e+00 0.000000e+00 1.000000e+00
      outer loop
         vertex 7.875346e+01 2.960000e+01 -1.031021e+02
         vertex 7.751739e+01 2.960000e+01 -1.031021e+02
         vertex 7.875346e+01 2.760000e+01 -1.031021e+02
      endloop
   endfacet
   facet normal 5.877837e-01 -0.000000e+00 8.090181e-01
      outer loop
         vertex 7.651739e+01 2.960000e+01 -1.023756e+02
         vertex 7.651739e+01 2.760000e+01 -1.023756e+02
         vertex 7.751739e+01 2.760000e+01 -1.031021e+02
      endloop
   endfacet
   facet normal 5.877837e-01 0.000000e+00 8.090181e-01
      outer loop
         vertex 7.751739e+01 2.960000e+01 -1.031021e+02
         vertex 7.651739e+01 2.960000e+01 -1.023756e+02
         vertex 7.751739e+01 2.760000e+01 -1.031021e+02
      endloop
   endfacet
   facet normal 9.510570e-01 -0.000000e+00 3.090156e-01
      outer loop
         vertex 7.613542e+01 2.960000e+01 -1.012000e+02
         vertex 7.613542e+01 2.760000e+01 -1.012000e+02
         vertex 7.651739e+01 2.760000e+01 -1.023756e+02
      endloop
   endfacet
   facet normal 9.510570e-01 0.000000e+00 3.090156e-01
      outer loop
         vertex 7.651739e+01 2.960000e+01 -1.023756e+02
         vertex 7.613542e+01 2.960000e+01 -1.012000e+02
         vertex 7.651739e+01 2.760000e+01 -1.023756e+02
      endloop
   endfacet
   facet normal 9.510564e-01 0.000000e+00 -3.090174e-01
      outer loop
         vertex 7.651739e+01 2.960000e+01 -1.000244e+02
         vertex 7.651739e+01 2.760000e+01 -1.000244e+02
         vertex 7.613542e+01 2.760000e+01 -1.012000e+02
      endloop
   endfacet
   facet normal 9.510564e-01 0.000000e+00 -3.090174e-01
      outer loop
         vertex 7.613542e+01 2.960000e+01 -1.012000e+02
         vertex 7.651739e+01 2.960000e+01 -1.000244e+02
         vertex 7.613542e+01 2.760000e+01 -1.012000e+02
      endloop
   endfacet
   facet normal 5.877837e-01 0.000000e+00 -8.090181e-01
      outer loop
         vertex 7.751739e+01 2.960000e+01 -9.929789e+01
         vertex 7.751739e+01 2.760000e+01 -9.929789e+01
         vertex 7.651739e+01 2.760000e+01 -1.000244e+02
      endloop
   endfacet
   facet normal 5.877837e-01 0.000000e+00 -8.090181e-01
      outer loop
         vertex 7.651739e+01 2.960000e+01 -1.000244e+02
         vertex 7.751739e+01 2.960000e+01 -9.929789e+01
         vertex 7.651739e+01 2.760000e+01 -1.000244e+02
      endloop
   endfacet
   facet normal 0.000000e+00 0.000000e+00 -1.000000e+00
      outer loop
         vertex 7.875346e+01 2.960000e+01 -9.929789e+01
         vertex 7.875346e+01 2.760000e+01 -9.929789e+01
         vertex 7.751739e+01 2.760000e+01 -9.929789e+01
      endloop
   endfacet
   facet normal -0.000000e+00 0.000000e+00 -1.000000e+00
      outer loop
         vertex 7.751739e+01 2.960000e+01 -9.929789e+01
         vertex 7.875346e+01 2.960000e+01 -9.929789e+01
         vertex 7.751739e+01 2.760000e+01 -9.929789e+01
      endloop
   endfacet
   facet normal -5.877837e-01 0.000000e+00 -8.090181e-01
      outer loop
         vertex 7.975346e+01 2.960000e+01 -1.000244e+02
         vertex 7.975346e+01 2.760000e+01 -1.000244e+02
         vertex 7.875346e+01 2.760000e+01 -9.929789e+01
      endloop
   endfacet
   facet normal -5.877837e-01 0.000000e+00 -8.090181e-01
      outer loop
         vertex 7.875346e+01 2.960000e+01 -9.929789e+01
         vertex 7.975346e+01 2.960000e+01 -1.000244e+02
         vertex 7.875346e+01 2.760000e+01 -9.929789e+01
      endloop
   endfacet
   facet normal -9.510564e-01 0.000000e+00 -3.090174e-01
      outer loop
         vertex 8.013542e+01 2.960000e+01 -1.012000e+02
         vertex 8.013542e+01 2.760000e+01 -1.012000e+02
         vertex 7.975346e+01 2.760000e+01 -1.000244e+02
      endloop
   endfacet
   facet normal -9.510564e-01 0.000000e+00 -3.090174e-01
      outer loop
         vertex 7.975346e+01 2.960000e+01 -1.000244e+02
         vertex 8.013542e+01 2.960000e+01 -1.012000e+02
         vertex 7.975346e+01 2.760000e+01 -1.000244e+02
      endloop
   endfacet
   facet normal -9.510567e-01 0.000000e+00 3.090165e-01
      outer loop
         vertex 7.975346e+01 2.960000e+01 -5.837557e+01
         vertex 7.975346e+01 2.760000e+01 -5.837557e+01
         vertex 8.013542e+01 2.760000e+01 -5.720000e+01
      endloop
   endfacet
   facet normal -9.510567e-01 0.000000e+00 3.090165e-01
      outer loop
         vertex 8.013542e+01 2.960000e+01 -5.720000e+01
         vertex 7.975346e+01 2.960000e+01 -5.837557e+01
         vertex 8.013542e+01 2.760000e+01 -5.720000e+01
      endloop
   endfacet
   facet normal -5.877837e-01 0.000000e+00 8.090181e-01
      outer loop
         vertex 7.875346e+01 2.960000e+01 -5.910211e+01
         vertex 7.875346e+01 2.760000e+01 -5.910211e+01
         vertex 7.975346e+01 2.760000e+01 -5.837557e+01
      endloop
   endfacet
   facet normal -5.877837e-01 0.000000e+00 8.090181e-01
      outer loop
         vertex 7.975346e+01 2.960000e+01 -5.837557e+01
         vertex 7.875346e+01 2.960000e+01 -5.910211e+01
         vertex 7.975346e+01 2.760000e+01 -5.837557e+01
      endloop
   endfacet
   facet normal 0.000000e+00 0.000000e+00 1.000000e+00
      outer loop
         vertex 7.751739e+01 2.960000e+01 -5.910211e+01
         vertex 7.751739e+01 2.760000e+01 -5.910211e+01
         vertex 7.875346e+01 2.760000e+01 -5.910211e+01
      endloop
   endfacet
   facet normal -0.000000e+00 0.000000e+00 1.000000e+00
      outer loop
         vertex 7.875346e+01 2.960000e+01 -5.910211e+01
         vertex 7.751739e+01 2.960000e+01 -5.910211e+01
         vertex 7.875346e+01 2.760000e+01 -5.910211e+01
      endloop
   endfacet
   facet normal 5.877837e-01 -0.000000e+00 8.090181e-01
      outer loop
         vertex 7.651739e+01 2.960000e+01 -5.837557e+01
         vertex 7.651739e+01 2.760000e+01 -5.837557e+01
         vertex 7.751739e+01 2.760000e+01 -5.910211e+01
      endloop
   endfacet
   facet normal 5.877837e-01 0.000000e+00 8.090181e-01
      outer loop
         vertex 7.751739e+01 2.960000e+01 -5.910211e+01
         vertex 7.651739e+01 2.960000e+01 -5.837557e+01
         vertex 7.751739e+01 2.760000e+01 -5.910211e+01
      endloop
   endfacet
   facet normal 9.510567e-01 -0.000000e+00 3.090165e-01
      outer loop
         vertex 7.613542e+01 2.960000e+01 -5.720000e+01
         vertex 7.613542e+01 2.760000e+01 -5.720000e+01
         vertex 7.651739e+01 2.760000e+01 -5.837557e+01
      endloop
   endfacet
   facet normal 9.510567e-01 0.000000e+00 3.090165e-01
      outer loop
         vertex 7.651739e+01 2.960000e+01 -5.837557e+01
         vertex 7.613542e+01 2.960000e+01 -5.720000e+01
         vertex 7.651739e+01 2.760000e+01 -5.837557e+01
      endloop
   endfacet
   facet normal 9.510567e-01 0.000000e+00 -3.090165e-01
      outer loop
         vertex 7.651739e+01 2.960000e+01 -5.602443e+01
         vertex 7.651739e+01 2.760000e+01 -5.602443e+01
         vertex 7.613542e+01 2.760000e+01 -5.720000e+01
      endloop
   endfacet
   facet normal 9.510567e-01 0.000000e+00 -3.090165e-01
      outer loop
         vertex 7.613542e+01 2.960000e+01 -5.720000e+01
         vertex 7.651739e+01 2.960000e+01 -5.602443e+01
         vertex 7.613542e+01 2.760000e+01 -5.720000e+01
      endloop
   endfacet
   facet normal 5.877857e-01 0.000000e+00 -8.090166e-01
      outer loop
         vertex 7.751739e+01 2.960000e+01 -5.529789e+01
         vertex 7.751739e+01 2.760000e+01 -5.529789e+01
         vertex 7.651739e+01 2.760000e+01 -5.602443e+01
      endloop
   endfacet
   facet normal 5.877857e-01 0.000000e+00 -8.090166e-01
      outer loop
         vertex 7.651739e+01 2.960000e+01 -5.602443e+01
         vertex 7.751739e+01 2.960000e+01 -5.529789e+01
         vertex 7.651739e+01 2.760000e+01 -5.602443e+01
      endloop
   endfacet
   facet normal 0.000000e+00 0.000000e+00 -1.000000e+00
      outer loop
         vertex 7.875346e+01 2.960000e+01 -5.529789e+01
         vertex 7.875346e+01 2.760000e+01 -5.529789e+01
         vertex 7.751739e+01 2.760000e+01 -5.529789e+01
      endloop
   endfacet
   facet normal -0.000000e+00 0.000000e+00 -1.000000e+00
      outer loop
         vertex 7.751739e+01 2.960000e+01 -5.529789e+01
         vertex 7.875346e+01 2.960000e+01 -5.529789e+01
         vertex 7.751739e+01 2.760000e+01 -5.529789e+01
      endloop
   endfacet
   facet normal -5.877857e-01 0.000000e+00 -8.090166e-01
      outer loop
         vertex 7.975346e+01 2.960000e+01 -5.602443e+01
         vertex 7.975346e+01 2.760000e+01 -5.602443e+01
         vertex 7.875346e+01 2.760000e+01 -5.529789e+01
      endloop
   endfacet
   facet normal -5.877857e-01 0.000000e+00 -8.090166e-01
      outer loop
         vertex 7.875346e+01 2.960000e+01 -5.529789e+01
         vertex 7.975346e+01 2.960000e+01 -5.602443e+01
         vertex 7.875346e+01 2.760000e+01 -5.529789e+01
      endloop
   endfacet
   facet normal -9.510567e-01 0.000000e+00 -3.090165e-01
      outer loop
         vertex 8.013542e+01 2.960000e+01 -5.720000e+01
         vertex 8.013542e+01 2.760000e+01 -5.720000e+01
         vertex 7.975346e+01 2.760000e+01 -5.602443e+01
      endloop
   endfacet
   facet normal -9.510567e-01 0.000000e+00 -3.090165e-01
      outer loop
         vertex 7.975346e+01 2.960000e+01 -5.602443e+01
         vertex 8.013542e+01 2.960000e+01 -5.720000e+01
         vertex 7.975346e+01 2.760000e+01 -5.602443e+01
      endloop
   endfacet
   facet normal 9.510566e-01 0.000000e+00 3.090167e-01
      outer loop
         vertex 1.237647e+01 2.760000e+01 -3.678743e+00
         vertex 1.237647e+01 2.960000e+01 -3.678743e+00
         vertex 1.199451e+01 2.960000e+01 -2.503172e+00
      endloop
   endfacet
   facet normal 9.510566e-01 0.000000e+00 3.090167e-01
      outer loop
         vertex 1.199451e+01 2.760000e+01 -2.503172e+00
         vertex 1.237647e+01 2.760000e+01 -3.678743e+00
         vertex 1.199451e+01 2.960000e+01 -2.503172e+00
      endloop
   endfacet
   facet normal 5.877852e-01 0.000000e+00 8.090170e-01
      outer loop
         vertex 1.337647e+01 2.760000e+01 -4.405285e+00
         vertex 1.337647e+01 2.960000e+01 -4.405285e+00
         vertex 1.237647e+01 2.960000e+01 -3.678743e+00
      endloop
   endfacet
   facet normal 5.877852e-01 0.000000e+00 8.090170e-01
      outer loop
         vertex 1.237647e+01 2.760000e+01 -3.678743e+00
         vertex 1.337647e+01 2.760000e+01 -4.405285e+00
         vertex 1.237647e+01 2.960000e+01 -3.678743e+00
      endloop
   endfacet
   facet normal 0.000000e+00 0.000000e+00 1.000000e+00
      outer loop
         vertex 1.461254e+01 2.760000e+01 -4.405285e+00
         vertex 1.461254e+01 2.960000e+01 -4.405285e+00
         vertex 1.337647e+01 2.960000e+01 -4.405285e+00
      endloop
   endfacet
   facet normal 0.000000e+00 0.000000e+00 1.000000e+00
      outer loop
         vertex 1.337647e+01 2.760000e+01 -4.405285e+00
         vertex 1.461254e+01 2.760000e+01 -4.405285e+00
         vertex 1.337647e+01 2.960000e+01 -4.405285e+00
      endloop
   endfacet
   facet normal -5.877852e-01 0.000000e+00 8.090170e-01
      outer loop
         vertex 1.561254e+01 2.760000e+01 -3.678743e+00
         vertex 1.561254e+01 2.960000e+01 -3.678743e+00
         vertex 1.461254e+01 2.960000e+01 -4.405285e+00
      endloop
   endfacet
   facet normal -5.877852e-01 0.000000e+00 8.090170e-01
      outer loop
         vertex 1.461254e+01 2.760000e+01 -4.405285e+00
         vertex 1.561254e+01 2.760000e+01 -3.678743e+00
         vertex 1.461254e+01 2.960000e+01 -4.405285e+00
      endloop
   endfacet
   facet normal -9.510564e-01 0.000000e+00 3.090174e-01
      outer loop
         vertex 1.599451e+01 2.760000e+01 -2.503172e+00
         vertex 1.599451e+01 2.960000e+01 -2.503172e+00
         vertex 1.561254e+01 2.960000e+01 -3.678743e+00
      endloop
   endfacet
   facet normal -9.510564e-01 0.000000e+00 3.090174e-01
      outer loop
         vertex 1.561254e+01 2.760000e+01 -3.678743e+00
         vertex 1.599451e+01 2.760000e+01 -2.503172e+00
         vertex 1.561254e+01 2.960000e+01 -3.678743e+00
      endloop
   endfacet
   facet normal -9.510564e-01 -0.000000e+00 -3.090174e-01
      outer loop
         vertex 1.561254e+01 2.760000e+01 -1.327602e+00
         vertex 1.561254e+01 2.960000e+01 -1.327602e+00
         vertex 1.599451e+01 2.960000e+01 -2.503172e+00
      endloop
   endfacet
   facet normal -9.510564e-01 0.000000e+00 -3.090174e-01
      outer loop
         vertex 1.599451e+01 2.760000e+01 -2.503172e+00
         vertex 1.561254e+01 2.760000e+01 -1.327602e+00
         vertex 1.599451e+01 2.960000e+01 -2.503172e+00
      endloop
   endfacet
   facet normal -5.877853e-01 -0.000000e+00 -8.090170e-01
      outer loop
         vertex 1.461254e+01 2.760000e+01 -6.010593e-01
         vertex 1.461254e+01 2.960000e+01 -6.010593e-01
         vertex 1.561254e+01 2.960000e+01 -1.327602e+00
      endloop
   endfacet
   facet normal -5.877853e-01 0.000000e+00 -8.090170e-01
      outer loop
         vertex 1.561254e+01 2.760000e+01 -1.327602e+00
         vertex 1.461254e+01 2.760000e+01 -6.010593e-01
         vertex 1.561254e+01 2.960000e+01 -1.327602e+00
      endloop
   endfacet
   facet normal 0.000000e+00 0.000000e+00 -1.000000e+00
      outer loop
         vertex 1.337647e+01 2.760000e+01 -6.010593e-01
         vertex 1.337647e+01 2.960000e+01 -6.010593e-01
         vertex 1.461254e+01 2.960000e+01 -6.010593e-01
      endloop
   endfacet
   facet normal 0.000000e+00 0.000000e+00 -1.000000e+00
      outer loop
         vertex 1.461254e+01 2.760000e+01 -6.010593e-01
         vertex 1.337647e+01 2.760000e+01 -6.010593e-01
         vertex 1.461254e+01 2.960000e+01 -6.010593e-01
      endloop
   endfacet
   facet normal 5.877853e-01 0.000000e+00 -8.090170e-01
      outer loop
         vertex 1.237647e+01 2.760000e+01 -1.327602e+00
         vertex 1.237647e+01 2.960000e+01 -1.327602e+00
         vertex 1.337647e+01 2.960000e+01 -6.010593e-01
      endloop
   endfacet
   facet normal 5.877853e-01 0.000000e+00 -8.090170e-01
      outer loop
         vertex 1.337647e+01 2.760000e+01 -6.010593e-01
         vertex 1.237647e+01 2.760000e+01 -1.327602e+00
         vertex 1.337647e+01 2.960000e+01 -6.010593e-01
      endloop
   endfacet
   facet normal 9.510566e-01 0.000000e+00 -3.090167e-01
      outer loop
         vertex 1.199451e+01 2.760000e+01 -2.503172e+00
         vertex 1.199451e+01 2.960000e+01 -2.503172e+00
         vertex 1.237647e+01 2.960000e+01 -1.327602e+00
      endloop
   endfacet
   facet normal 9.510566e-01 0.000000e+00 -3.090167e-01
      outer loop
         vertex 1.237647e+01 2.760000e+01 -1.327602e+00
         vertex 1.199451e+01 2.760000e+01 -2.503172e+00
         vertex 1.237647e+01 2.960000e+01 -1.327602e+00
      endloop
   endfacet
   facet normal 9.510567e-01 0.000000e+00 3.090165e-01
      outer loop
         vertex 1.368197e+01 2.760000e+01 -5.187557e+01
         vertex 1.368197e+01 2.960000e+01 -5.187557e+01
         vertex 1.330000e+01 2.960000e+01 -5.070000e+01
      endloop
   endfacet
   facet normal 9.510567e-01 0.000000e+00 3.090165e-01
      outer loop
         vertex 1.330000e+01 2.760000e+01 -5.070000e+01
         vertex 1.368197e+01 2.760000e+01 -5.187557e+01
         vertex 1.330000e+01 2.960000e+01 -5.070000e+01
      endloop
   endfacet
   facet normal 5.877837e-01 0.000000e+00 8.090181e-01
      outer loop
         vertex 1.468197e+01 2.760000e+01 -5.260211e+01
         vertex 1.468197e+01 2.960000e+01 -5.260211e+01
         vertex 1.368197e+01 2.960000e+01 -5.187557e+01
      endloop
   endfacet
   facet normal 5.877837e-01 0.000000e+00 8.090181e-01
      outer loop
         vertex 1.368197e+01 2.760000e+01 -5.187557e+01
         vertex 1.468197e+01 2.760000e+01 -5.260211e+01
         vertex 1.368197e+01 2.960000e+01 -5.187557e+01
      endloop
   endfacet
   facet normal 0.000000e+00 0.000000e+00 1.000000e+00
      outer loop
         vertex 1.591803e+01 2.760000e+01 -5.260211e+01
         vertex 1.591803e+01 2.960000e+01 -5.260211e+01
         vertex 1.468197e+01 2.960000e+01 -5.260211e+01
      endloop
   endfacet
   facet normal 0.000000e+00 0.000000e+00 1.000000e+00
      outer loop
         vertex 1.468197e+01 2.760000e+01 -5.260211e+01
         vertex 1.591803e+01 2.760000e+01 -5.260211e+01
         vertex 1.468197e+01 2.960000e+01 -5.260211e+01
      endloop
   endfacet
   facet normal -5.877833e-01 0.000000e+00 8.090184e-01
      outer loop
         vertex 1.691804e+01 2.760000e+01 -5.187557e+01
         vertex 1.691804e+01 2.960000e+01 -5.187557e+01
         vertex 1.591803e+01 2.960000e+01 -5.260211e+01
      endloop
   endfacet
   facet normal -5.877833e-01 0.000000e+00 8.090184e-01
      outer loop
         vertex 1.591803e+01 2.760000e+01 -5.260211e+01
         vertex 1.691804e+01 2.760000e+01 -5.187557e+01
         vertex 1.591803e+01 2.960000e+01 -5.260211e+01
      endloop
   endfacet
   facet normal -9.510567e-01 0.000000e+00 3.090165e-01
      outer loop
         vertex 1.730000e+01 2.760000e+01 -5.070000e+01
         vertex 1.730000e+01 2.960000e+01 -5.070000e+01
         vertex 1.691804e+01 2.960000e+01 -5.187557e+01
      endloop
   endfacet
   facet normal -9.510567e-01 0.000000e+00 3.090165e-01
      outer loop
         vertex 1.691804e+01 2.760000e+01 -5.187557e+01
         vertex 1.730000e+01 2.760000e+01 -5.070000e+01
         vertex 1.691804e+01 2.960000e+01 -5.187557e+01
      endloop
   endfacet
   facet normal -9.510567e-01 -0.000000e+00 -3.090165e-01
      outer loop
         vertex 1.691804e+01 2.760000e+01 -4.952443e+01
         vertex 1.691804e+01 2.960000e+01 -4.952443e+01
         vertex 1.730000e+01 2.960000e+01 -5.070000e+01
      endloop
   endfacet
   facet normal -9.510567e-01 0.000000e+00 -3.090165e-01
      outer loop
         vertex 1.730000e+01 2.760000e+01 -5.070000e+01
         vertex 1.691804e+01 2.760000e+01 -4.952443e+01
         vertex 1.730000e+01 2.960000e+01 -5.070000e+01
      endloop
   endfacet
   facet normal -5.877854e-01 -0.000000e+00 -8.090169e-01
      outer loop
         vertex 1.591803e+01 2.760000e+01 -4.879789e+01
         vertex 1.591803e+01 2.960000e+01 -4.879789e+01
         vertex 1.691804e+01 2.960000e+01 -4.952443e+01
      endloop
   endfacet
   facet normal -5.877854e-01 0.000000e+00 -8.090169e-01
      outer loop
         vertex 1.691804e+01 2.760000e+01 -4.952443e+01
         vertex 1.591803e+01 2.760000e+01 -4.879789e+01
         vertex 1.691804e+01 2.960000e+01 -4.952443e+01
      endloop
   endfacet
   facet normal 0.000000e+00 0.000000e+00 -1.000000e+00
      outer loop
         vertex 1.468197e+01 2.760000e+01 -4.879789e+01
         vertex 1.468197e+01 2.960000e+01 -4.879789e+01
         vertex 1.591803e+01 2.960000e+01 -4.879789e+01
      endloop
   endfacet
   facet normal 0.000000e+00 0.000000e+00 -1.000000e+00
      outer loop
         vertex 1.591803e+01 2.760000e+01 -4.879789e+01
         vertex 1.468197e+01 2.760000e+01 -4.879789e+01
         vertex 1.591803e+01 2.960000e+01 -4.879789e+01
      endloop
   endfacet
   facet normal 5.877857e-01 0.000000e+00 -8.090166e-01
      outer loop
         vertex 1.368197e+01 2.760000e+01 -4.952443e+01
         vertex 1.368197e+01 2.960000e+01 -4.952443e+01
         vertex 1.468197e+01 2.960000e+01 -4.879789e+01
      endloop
   endfacet
   facet normal 5.877857e-01 0.000000e+00 -8.090166e-01
      outer loop
         vertex 1.468197e+01 2.760000e+01 -4.879789e+01
         vertex 1.368197e+01 2.760000e+01 -4.952443e+01
         vertex 1.468197e+01 2.960000e+01 -4.879789e+01
      endloop
   endfacet
   facet normal 9.510567e-01 0.000000e+00 -3.090165e-01
      outer loop
         vertex 1.330000e+01 2.760000e+01 -5.070000e+01
         vertex 1.330000e+01 2.960000e+01 -5.070000e+01
         vertex 1.368197e+01 2.960000e+01 -4.952443e+01
      endloop
   endfacet
   facet normal 9.510567e-01 0.000000e+00 -3.090165e-01
      outer loop
         vertex 1.368197e+01 2.760000e+01 -4.952443e+01
         vertex 1.330000e+01 2.760000e+01 -5.070000e+01
         vertex 1.368197e+01 2.960000e+01 -4.952443e+01
      endloop
   endfacet
   facet normal 9.510566e-01 0.000000e+00 3.090168e-01
      outer loop
         vertex 9.238197e+01 2.760000e+01 -8.775570e+00
         vertex 9.238197e+01 2.960000e+01 -8.775570e+00
         vertex 9.200000e+01 2.960000e+01 -7.600000e+00
      endloop
   endfacet
   facet normal 9.510566e-01 0.000000e+00 3.090168e-01
      outer loop
         vertex 9.200000e+01 2.760000e+01 -7.600000e+00
         vertex 9.238197e+01 2.760000e+01 -8.775570e+00
         vertex 9.200000e+01 2.960000e+01 -7.600000e+00
      endloop
   endfacet
   facet normal 5.877852e-01 0.000000e+00 8.090170e-01
      outer loop
         vertex 9.338197e+01 2.760000e+01 -9.502112e+00
         vertex 9.338197e+01 2.960000e+01 -9.502112e+00
         vertex 9.238197e+01 2.960000e+01 -8.775570e+00
      endloop
   endfacet
   facet normal 5.877852e-01 0.000000e+00 8.090170e-01
      outer loop
         vertex 9.238197e+01 2.760000e+01 -8.775570e+00
         vertex 9.338197e+01 2.760000e+01 -9.502112e+00
         vertex 9.238197e+01 2.960000e+01 -8.775570e+00
      endloop
   endfacet
   facet normal 0.000000e+00 0.000000e+00 1.000000e+00
      outer loop
         vertex 9.461803e+01 2.760000e+01 -9.502112e+00
         vertex 9.461803e+01 2.960000e+01 -9.502112e+00
         vertex 9.338197e+01 2.960000e+01 -9.502112e+00
      endloop
   endfacet
   facet normal 0.000000e+00 0.000000e+00 1.000000e+00
      outer loop
         vertex 9.338197e+01 2.760000e+01 -9.502112e+00
         vertex 9.461803e+01 2.760000e+01 -9.502112e+00
         vertex 9.338197e+01 2.960000e+01 -9.502112e+00
      endloop
   endfacet
   facet normal -5.877852e-01 0.000000e+00 8.090170e-01
      outer loop
         vertex 9.561803e+01 2.760000e+01 -8.775570e+00
         vertex 9.561803e+01 2.960000e+01 -8.775570e+00
         vertex 9.461803e+01 2.960000e+01 -9.502112e+00
      endloop
   endfacet
   facet normal -5.877852e-01 0.000000e+00 8.090170e-01
      outer loop
         vertex 9.461803e+01 2.760000e+01 -9.502112e+00
         vertex 9.561803e+01 2.760000e+01 -8.775570e+00
         vertex 9.461803e+01 2.960000e+01 -9.502112e+00
      endloop
   endfacet
   facet normal -9.510566e-01 0.000000e+00 3.090168e-01
      outer loop
         vertex 9.600000e+01 2.760000e+01 -7.600000e+00
         vertex 9.600000e+01 2.960000e+01 -7.600000e+00
         vertex 9.561803e+01 2.960000e+01 -8.775570e+00
      endloop
   endfacet
   facet normal -9.510566e-01 0.000000e+00 3.090168e-01
      outer loop
         vertex 9.561803e+01 2.760000e+01 -8.775570e+00
         vertex 9.600000e+01 2.760000e+01 -7.600000e+00
         vertex 9.561803e+01 2.960000e+01 -8.775570e+00
      endloop
   endfacet
   facet normal -9.510566e-01 -0.000000e+00 -3.090167e-01
      outer loop
         vertex 9.561803e+01 2.760000e+01 -6.424429e+00
         vertex 9.561803e+01 2.960000e+01 -6.424429e+00
         vertex 9.600000e+01 2.960000e+01 -7.600000e+00
      endloop
   endfacet
   facet normal -9.510566e-01 0.000000e+00 -3.090167e-01
      outer loop
         vertex 9.600000e+01 2.760000e+01 -7.600000e+00
         vertex 9.561803e+01 2.760000e+01 -6.424429e+00
         vertex 9.600000e+01 2.960000e+01 -7.600000e+00
      endloop
   endfacet
   facet normal -5.877852e-01 -0.000000e+00 -8.090170e-01
      outer loop
         vertex 9.461803e+01 2.760000e+01 -5.697887e+00
         vertex 9.461803e+01 2.960000e+01 -5.697887e+00
         vertex 9.561803e+01 2.960000e+01 -6.424429e+00
      endloop
   endfacet
   facet normal -5.877852e-01 0.000000e+00 -8.090170e-01
      outer loop
         vertex 9.561803e+01 2.760000e+01 -6.424429e+00
         vertex 9.461803e+01 2.760000e+01 -5.697887e+00
         vertex 9.561803e+01 2.960000e+01 -6.424429e+00
      endloop
   endfacet
   facet normal 0.000000e+00 0.000000e+00 -1.000000e+00
      outer loop
         vertex 9.338197e+01 2.760000e+01 -5.697887e+00
         vertex 9.338197e+01 2.960000e+01 -5.697887e+00
         vertex 9.461803e+01 2.960000e+01 -5.697887e+00
      endloop
   endfacet
   facet normal 0.000000e+00 0.000000e+00 -1.000000e+00
      outer loop
         vertex 9.461803e+01 2.760000e+01 -5.697887e+00
         vertex 9.338197e+01 2.760000e+01 -5.697887e+00
         vertex 9.461803e+01 2.960000e+01 -5.697887e+00
      endloop
   endfacet
   facet normal 5.877852e-01 0.000000e+00 -8.090170e-01
      outer loop
         vertex 9.238197e+01 2.760000e+01 -6.424429e+00
         vertex 9.238197e+01 2.960000e+01 -6.424429e+00
         vertex 9.338197e+01 2.960000e+01 -5.697887e+00
      endloop
   endfacet
   facet normal 5.877852e-01 0.000000e+00 -8.090170e-01
      outer loop
         vertex 9.338197e+01 2.760000e+01 -5.697887e+00
         vertex 9.238197e+01 2.760000e+01 -6.424429e+00
         vertex 9.338197e+01 2.960000e+01 -5.697887e+00
      endloop
   endfacet
   facet normal 9.510566e-01 0.000000e+00 -3.090167e-01
      outer loop
         vertex 9.200000e+01 2.760000e+01 -7.600000e+00
         vertex 9.200000e+01 2.960000e+01 -7.600000e+00
         vertex 9.238197e+01 2.960000e+01 -6.424429e+00
      endloop
   endfacet
   facet normal 9.510566e-01 0.000000e+00 -3.090167e-01
      outer loop
         vertex 9.238197e+01 2.760000e+01 -6.424429e+00
         vertex 9.200000e+01 2.760000e+01 -7.600000e+00
         vertex 9.238197e+01 2.960000e+01 -6.424429e+00
      endloop
   endfacet
   facet normal 9.510567e-01 0.000000e+00 3.090165e-01
      outer loop
         vertex 9.238197e+01 2.760000e+01 -3.667557e+01
         vertex 9.238197e+01 2.960000e+01 -3.667557e+01
         vertex 9.200000e+01 2.960000e+01 -3.550000e+01
      endloop
   endfacet
   facet normal 9.510567e-01 0.000000e+00 3.090165e-01
      outer loop
         vertex 9.200000e+01 2.760000e+01 -3.550000e+01
         vertex 9.238197e+01 2.760000e+01 -3.667557e+01
         vertex 9.200000e+01 2.960000e+01 -3.550000e+01
      endloop
   endfacet
   facet normal 5.877857e-01 0.000000e+00 8.090166e-01
      outer loop
         vertex 9.338197e+01 2.760000e+01 -3.740211e+01
         vertex 9.338197e+01 2.960000e+01 -3.740211e+01
         vertex 9.238197e+01 2.960000e+01 -3.667557e+01
      endloop
   endfacet
   facet normal 5.877857e-01 0.000000e+00 8.090166e-01
      outer loop
         vertex 9.238197e+01 2.760000e+01 -3.667557e+01
         vertex 9.338197e+01 2.760000e+01 -3.740211e+01
         vertex 9.238197e+01 2.960000e+01 -3.667557e+01
      endloop
   endfacet
   facet normal 0.000000e+00 0.000000e+00 1.000000e+00
      outer loop
         vertex 9.461803e+01 2.760000e+01 -3.740211e+01
         vertex 9.461803e+01 2.960000e+01 -3.740211e+01
         vertex 9.338197e+01 2.960000e+01 -3.740211e+01
      endloop
   endfacet
   facet normal 0.000000e+00 0.000000e+00 1.000000e+00
      outer loop
         vertex 9.338197e+01 2.760000e+01 -3.740211e+01
         vertex 9.461803e+01 2.760000e+01 -3.740211e+01
         vertex 9.338197e+01 2.960000e+01 -3.740211e+01
      endloop
   endfacet
   facet normal -5.877857e-01 0.000000e+00 8.090166e-01
      outer loop
         vertex 9.561803e+01 2.760000e+01 -3.667557e+01
         vertex 9.561803e+01 2.960000e+01 -3.667557e+01
         vertex 9.461803e+01 2.960000e+01 -3.740211e+01
      endloop
   endfacet
   facet normal -5.877857e-01 0.000000e+00 8.090166e-01
      outer loop
         vertex 9.461803e+01 2.760000e+01 -3.740211e+01
         vertex 9.561803e+01 2.760000e+01 -3.667557e+01
         vertex 9.461803e+01 2.960000e+01 -3.740211e+01
      endloop
   endfacet
   facet normal -9.510567e-01 0.000000e+00 3.090165e-01
      outer loop
         vertex 9.600000e+01 2.760000e+01 -3.550000e+01
         vertex 9.600000e+01 2.960000e+01 -3.550000e+01
         vertex 9.561803e+01 2.960000e+01 -3.667557e+01
      endloop
   endfacet
   facet normal -9.510567e-01 0.000000e+00 3.090165e-01
      outer loop
         vertex 9.561803e+01 2.760000e+01 -3.667557e+01
         vertex 9.600000e+01 2.760000e+01 -3.550000e+01
         vertex 9.561803e+01 2.960000e+01 -3.667557e+01
      endloop
   endfacet
   facet normal -9.510567e-01 -0.000000e+00 -3.090165e-01
      outer loop
         vertex 9.561803e+01 2.760000e+01 -3.432443e+01
         vertex 9.561803e+01 2.960000e+01 -3.432443e+01
         vertex 9.600000e+01 2.960000e+01 -3.550000e+01
      endloop
   endfacet
   facet normal -9.510567e-01 0.000000e+00 -3.090165e-01
      outer loop
         vertex 9.600000e+01 2.760000e+01 -3.550000e+01
         vertex 9.561803e+01 2.760000e+01 -3.432443e+01
         vertex 9.600000e+01 2.960000e+01 -3.550000e+01
      endloop
   endfacet
   facet normal -5.877837e-01 -0.000000e+00 -8.090181e-01
      outer loop
         vertex 9.461803e+01 2.760000e+01 -3.359789e+01
         vertex 9.461803e+01 2.960000e+01 -3.359789e+01
         vertex 9.561803e+01 2.960000e+01 -3.432443e+01
      endloop
   endfacet
   facet normal -5.877837e-01 0.000000e+00 -8.090181e-01
      outer loop
         vertex 9.561803e+01 2.760000e+01 -3.432443e+01
         vertex 9.461803e+01 2.760000e+01 -3.359789e+01
         vertex 9.561803e+01 2.960000e+01 -3.432443e+01
      endloop
   endfacet
   facet normal 0.000000e+00 0.000000e+00 -1.000000e+00
      outer loop
         vertex 9.338197e+01 2.760000e+01 -3.359789e+01
         vertex 9.338197e+01 2.960000e+01 -3.359789e+01
         vertex 9.461803e+01 2.960000e+01 -3.359789e+01
      endloop
   endfacet
   facet normal 0.000000e+00 0.000000e+00 -1.000000e+00
      outer loop
         vertex 9.461803e+01 2.760000e+01 -3.359789e+01
         vertex 9.338197e+01 2.760000e+01 -3.359789e+01
         vertex 9.461803e+01 2.960000e+01 -3.359789e+01
      endloop
   endfacet
   facet normal 5.877837e-01 0.000000e+00 -8.090181e-01
      outer loop
         vertex 9.238197e+01 2.760000e+01 -3.432443e+01
         vertex 9.238197e+01 2.960000e+01 -3.432443e+01
         vertex 9.338197e+01 2.960000e+01 -3.359789e+01
      endloop
   endfacet
   facet normal 5.877837e-01 0.000000e+00 -8.090181e-01
      outer loop
         vertex 9.338197e+01 2.760000e+01 -3.359789e+01
         vertex 9.238197e+01 2.760000e+01 -3.432443e+01
         vertex 9.338197e+01 2.960000e+01 -3.359789e+01
      endloop
   endfacet
   facet normal 9.510567e-01 0.000000e+00 -3.090165e-01
      outer loop
         vertex 9.200000e+01 2.760000e+01 -3.550000e+01
         vertex 9.200000e+01 2.960000e+01 -3.550000e+01
         vertex 9.238197e+01 2.960000e+01 -3.432443e+01
      endloop
   endfacet
   facet normal 9.510567e-01 0.000000e+00 -3.090165e-01
      outer loop
         vertex 9.238197e+01 2.760000e+01 -3.432443e+01
         vertex 9.200000e+01 2.760000e+01 -3.550000e+01
         vertex 9.238197e+01 2.960000e+01 -3.432443e+01
      endloop
   endfacet
endsolid
